<svg width="660" height="45" viewBox="0 0 660 45" fill="none" xmlns="http://www.w3.org/2000/svg">
<path d="M12.8509 4.99878L3.05176e-05 4.99878L2.74576e-05 40.0012L12.8509 40.0012L12.8509 4.99878Z" fill="#67E78B"/>
<path opacity="0.6" d="M35.7309 4.99878L22.8801 4.99878L22.8801 40.0012L35.7309 40.0012L35.7309 4.99878Z" fill="#67E78B"/>
<path opacity="0.3" d="M58.611 4.99878L45.7602 4.99878L45.7602 40.0012L58.611 40.0012L58.611 4.99878Z" fill="#67E78B"/>
<path opacity="0.15" d="M81.5039 4.99878L68.6532 4.99878L68.6532 40.0012L81.5039 40.0012L81.5039 4.99878Z" fill="#67E78B"/>
<path d="M188.38 36C187.492 36 186.676 35.784 185.932 35.352C185.188 34.92 184.6 34.332 184.168 33.588C183.736 32.844 183.52 32.028 183.52 31.14V14.94C183.52 14.052 183.736 13.236 184.168 12.492C184.6 11.748 185.188 11.16 185.932 10.728C186.676 10.296 187.492 10.08 188.38 10.08H209.368V14.436H189.136C188.752 14.436 188.44 14.556 188.2 14.796C187.96 15.012 187.84 15.312 187.84 15.696V30.384C187.84 30.768 187.96 31.08 188.2 31.32C188.44 31.536 188.752 31.644 189.136 31.644H209.368V36H188.38ZM233.389 36C232.501 36 231.685 35.784 230.941 35.352C230.197 34.92 229.609 34.332 229.177 33.588C228.745 32.844 228.529 32.028 228.529 31.14V14.94C228.529 14.052 228.745 13.236 229.177 12.492C229.609 11.748 230.197 11.16 230.941 10.728C231.685 10.296 232.501 10.08 233.389 10.08H249.589C250.477 10.08 251.281 10.296 252.001 10.728C252.745 11.16 253.333 11.748 253.765 12.492C254.221 13.236 254.449 14.052 254.449 14.94V31.14C254.449 32.028 254.221 32.844 253.765 33.588C253.333 34.332 252.745 34.92 252.001 35.352C251.281 35.784 250.477 36 249.589 36H233.389ZM233.497 31.644H249.409C249.601 31.644 249.757 31.584 249.877 31.464C250.021 31.344 250.093 31.188 250.093 30.996V15.084C250.093 14.892 250.021 14.736 249.877 14.616C249.757 14.496 249.601 14.436 249.409 14.436H233.497C233.329 14.436 233.173 14.496 233.029 14.616C232.909 14.736 232.849 14.892 232.849 15.084V30.996C232.849 31.188 232.909 31.344 233.029 31.464C233.173 31.584 233.329 31.644 233.497 31.644ZM273.894 36V10.08H278.826L295.458 29.88V10.08H299.814V36H294.882L278.214 16.164V36H273.894ZM319.327 36V10.08H324.259L340.891 29.88V10.08H345.247V36H340.315L323.647 16.164V36H319.327ZM364.832 36V10.08H388.628V14.436H369.188V20.844H384.848V25.236H369.188V31.644H388.628V36H364.832ZM412.663 36C411.775 36 410.959 35.784 410.215 35.352C409.471 34.92 408.883 34.332 408.451 33.588C408.019 32.844 407.803 32.028 407.803 31.14V14.94C407.803 14.052 408.019 13.236 408.451 12.492C408.883 11.748 409.471 11.16 410.215 10.728C410.959 10.296 411.775 10.08 412.663 10.08H433.651V14.436H413.419C413.035 14.436 412.723 14.556 412.483 14.796C412.243 15.012 412.123 15.312 412.123 15.696V30.384C412.123 30.768 412.243 31.08 412.483 31.32C412.723 31.536 413.035 31.644 413.419 31.644H433.651V36H412.663ZM462.388 36V14.436H451.588V10.08H477.508V14.436H466.744V36H462.388Z" fill="url(#paint0_linear_136_2)"/>
<path d="M647.157 40.0012H660.008V4.99881H647.157V40.0012Z" fill="#67E78B"/>
<path opacity="0.6" d="M624.277 40.0012H637.128V4.99881H624.277V40.0012Z" fill="#67E78B"/>
<path opacity="0.3" d="M601.397 40.0012H614.248V4.99881H601.397V40.0012Z" fill="#67E78B"/>
<path opacity="0.15" d="M578.504 40.0012H591.355V4.99881H578.504V40.0012Z" fill="#67E78B"/>
<defs>
<linearGradient id="paint0_linear_136_2" x1="330.004" y1="-9.41327" x2="330.004" y2="36.2755" gradientUnits="userSpaceOnUse">
<stop offset="0.0976863" stop-color="#8EFFB9"/>
<stop offset="1" stop-color="#5CC77A"/>
</linearGradient>
</defs>
</svg>
