<svg width="568" height="382" viewBox="0 0 568 382" fill="none" xmlns="http://www.w3.org/2000/svg">
<g clip-path="url(#clip0_25_50)">
<g opacity="0.1">
<path d="M567.85 366.881V27.6519L542.275 9.2462H285.221L270.611 0.0666809H30.1364L0 24.952V360.008L14.3092 373.36H223.731L242.602 382H552.624L567.85 366.881Z" fill="#67E78B"/>
</g>
<path d="M277.308 0.0666632L287.979 5.7597H538.345L531.851 0L277.308 0.0666632Z" fill="#67E78B"/>
<path d="M270.153 1.34661L284.387 10.2928L284.763 10.5261H541.764L566.414 28.2585V366.394L551.985 380.727H242.955L224.392 372.227L224.084 372.087H14.9254L1.43543 359.495V25.5053L30.7001 1.34661H270.146M270.604 0.0666809H30.1364L0 24.952V360.008L14.3092 373.367H223.731L242.602 382.007H552.624L567.85 366.887V27.6519L542.275 9.2462H285.221L270.604 0.0666809Z" fill="#67E78B"/>
<path d="M46.3695 375.88H223.325L237.529 382H53.6744L46.3695 375.88Z" fill="#67E78B"/>
<path d="M50.4278 382H43.5287L36.532 375.88H43.431L50.4278 382Z" fill="#67E78B"/>
<path d="M40.7405 382H33.8415L26.8372 375.88H33.7362L40.7405 382Z" fill="#67E78B"/>
<path d="M14.9855 0.0666809H26.6869L0 22.0722V12.1727L14.9855 0.0666809Z" fill="#67E78B"/>
<path opacity="0.1" d="M567.233 39.5312L557.802 47.9041V376.06L568 367.014L567.233 39.5312Z" fill="#67E78B"/>
<path d="M566.422 353.021L534.159 381.64H552.624L567.85 366.881L566.422 353.021Z" fill="#67E78B"/>
<path opacity="0.1" d="M0 360.008H139.717L154.252 372.894H14.3092L0 360.008Z" fill="#67E78B"/>
<g filter="url(#filter0_d_25_50)">
<path d="M203.312 12.3194H43.6414V25.6987H203.312V12.3194Z" stroke="#67E78B" stroke-width="0.86" stroke-miterlimit="10"/>
</g>
<path d="M99.0819 13.7526L93.0246 24.2254H98.7287L104.786 13.7526H99.0819Z" fill="#67E78B"/>
<path d="M90.8301 13.7526L84.7728 24.2254H90.4769L96.5342 13.7526H90.8301Z" fill="#67E78B"/>
<path d="M82.5783 13.7526L76.5209 24.2254H82.2326L88.2899 13.7526H82.5783Z" fill="#67E78B"/>
<path d="M107.326 13.7526L101.269 24.2254H106.981L113.038 13.7526H107.326Z" fill="#67E78B"/>
<path d="M115.578 13.7526L109.521 24.2254H115.225L121.282 13.7526H115.578Z" fill="#67E78B"/>
<path d="M74.3265 13.7526L68.2766 24.2254H73.9808L80.0381 13.7526H74.3265Z" fill="#67E78B"/>
<path d="M49.5785 13.7526L45.618 20.6123V24.2254H49.2328L55.2902 13.7526H49.5785Z" fill="#67E78B"/>
<path d="M57.8304 13.7526L51.773 24.2254H57.4846L63.5345 13.7526H57.8304Z" fill="#67E78B"/>
<path d="M66.0822 13.7526L60.0248 24.2254H65.7289L71.7863 13.7526H66.0822Z" fill="#67E78B"/>
<path d="M132.074 13.7526L126.017 24.2254H131.728L137.786 13.7526H132.074Z" fill="#67E78B"/>
<path opacity="0.45" d="M173.326 13.7526L167.268 24.2254H172.972L179.03 13.7526H173.326Z" fill="#67E78B"/>
<path opacity="0.45" d="M181.57 13.7526L175.52 24.2254H181.224L187.282 13.7526H181.57Z" fill="#67E78B"/>
<path opacity="0.45" d="M189.822 13.7526L183.764 24.2254H189.476L195.533 13.7526H189.822Z" fill="#67E78B"/>
<path d="M123.83 13.7526L117.773 24.2254H123.477L129.534 13.7526H123.83Z" fill="#67E78B"/>
<path opacity="0.45" d="M201.689 13.7526H198.074L192.016 24.2254H197.72L201.689 17.3658V13.7526Z" fill="#67E78B"/>
<path opacity="0.45" d="M148.578 13.7526L142.52 24.2254H148.225L154.282 13.7526H148.578Z" fill="#67E78B"/>
<path opacity="0.45" d="M140.326 13.7526L134.269 24.2254H139.98L146.03 13.7526H140.326Z" fill="#67E78B"/>
<path opacity="0.45" d="M165.074 13.7526L159.017 24.2254H164.728L170.786 13.7526H165.074Z" fill="#67E78B"/>
<path opacity="0.45" d="M156.822 13.7526L150.772 24.2254H156.476L162.534 13.7526H156.822Z" fill="#67E78B"/>
<g clip-path="url(#clip1_25_50)">
<path d="M401.795 295.807C401.795 299.095 399.13 301.762 395.84 301.762C392.551 301.762 389.885 299.096 389.885 295.807C389.885 292.517 392.552 289.852 395.84 289.852C399.129 289.852 401.795 292.517 401.795 295.807Z" fill="#686DE0"/>
<path d="M406.74 306.788C408.697 306.788 410.283 305.202 410.283 303.246C410.283 301.289 408.697 299.703 406.74 299.703C404.784 299.703 403.198 301.289 403.198 303.246C403.198 305.202 404.784 306.788 406.74 306.788Z" fill="#F9CA24"/>
<path d="M401.129 313.27C401.129 314.73 399.946 315.914 398.485 315.914C397.025 315.914 395.841 314.73 395.841 313.27C395.841 311.809 397.025 310.625 398.485 310.625C399.946 310.625 401.129 311.809 401.129 313.27Z" fill="#F6E58D"/>
<path d="M205.783 276.669C209.175 275.274 210.793 271.394 209.398 268.003C208.003 264.612 204.123 262.994 200.732 264.389C197.341 265.783 195.722 269.663 197.117 273.055C198.512 276.446 202.392 278.064 205.783 276.669Z" fill="#686DE0"/>
<path d="M212.616 277.176C212.616 279.362 210.843 281.135 208.657 281.135C206.471 281.135 204.699 279.362 204.699 277.176C204.699 274.99 206.471 273.218 208.657 273.218C210.843 273.218 212.616 274.991 212.616 277.176Z" fill="#F0932B"/>
<path d="M504.272 126.229C504.944 123.373 503.173 120.512 500.316 119.84C497.46 119.168 494.6 120.939 493.928 123.796C493.256 126.652 495.026 129.512 497.883 130.184C500.739 130.856 503.6 129.085 504.272 126.229Z" fill="#F0932B"/>
<path d="M490.696 114.435C490.696 115.65 489.711 116.635 488.496 116.635C487.28 116.635 486.295 115.65 486.295 114.435C486.295 113.219 487.28 112.234 488.496 112.234C489.711 112.234 490.696 113.219 490.696 114.435Z" fill="#F6E58D"/>
<path d="M486.15 135.707C488.66 134.662 489.847 131.78 488.802 129.27C487.757 126.761 484.875 125.573 482.365 126.618C479.855 127.663 478.668 130.545 479.713 133.055C480.758 135.565 483.64 136.753 486.15 135.707Z" fill="#686DE0"/>
<path d="M63.3908 184.614C62.8979 185.863 61.4859 186.475 60.2369 185.982C58.9885 185.489 58.3758 184.077 58.8687 182.828C59.3616 181.58 60.7736 180.967 62.0226 181.46C63.2716 181.953 63.8844 183.365 63.3908 184.614Z" fill="#F6E58D"/>
<path d="M67.3958 197.35C67.1096 198.075 66.2902 198.43 65.5657 198.144C64.8412 197.858 64.4856 197.039 64.7718 196.314C65.058 195.59 65.8774 195.234 66.6019 195.52C67.3264 195.807 67.682 196.626 67.3958 197.35Z" fill="#686DE0"/>
<path d="M75.9868 184.668C74.9526 187.287 71.9906 188.572 69.372 187.538C66.7527 186.504 65.468 183.542 66.5023 180.923C67.5365 178.304 70.4985 177.019 73.1171 178.053C75.7364 179.087 77.0211 182.049 75.9868 184.668Z" fill="#F0932B"/>
<path d="M195.533 303.246C195.533 304.548 194.477 305.604 193.175 305.604C191.873 305.604 190.817 304.548 190.817 303.246C190.817 301.943 191.873 300.888 193.175 300.888C194.477 300.888 195.533 301.943 195.533 303.246Z" fill="#F6E58D"/>
<path d="M155.708 193.373C158.559 192.256 159.965 189.04 158.848 186.189C157.731 183.338 154.515 181.933 151.664 183.05C148.813 184.166 147.408 187.383 148.525 190.233C149.641 193.084 152.858 194.49 155.708 193.373Z" fill="#686DE0"/>
<path d="M158.253 168.753H81.3499C77.6318 168.753 74.6173 165.739 74.6173 162.021V48.772C74.6173 45.0539 77.6318 42.0394 81.3499 42.0394H158.253C161.971 42.0394 164.985 45.0539 164.985 48.772V162.021C164.985 165.739 161.971 168.753 158.253 168.753Z" fill="#535C68"/>
<mask id="mask0_25_50" style="mask-type:luminance" maskUnits="userSpaceOnUse" x="88" y="37" width="149" height="149">
<path d="M234.796 128.702L180.418 183.08C177.789 185.709 173.526 185.709 170.897 183.08L90.8185 103.001C88.1894 100.372 88.1894 96.1092 90.8185 93.4801L145.196 39.1022C147.826 36.4731 152.089 36.4731 154.718 39.1022L234.796 119.181C237.425 121.81 237.425 126.073 234.796 128.702Z" fill="white"/>
</mask>
<g mask="url(#mask0_25_50)">
<path d="M165.261 73.4128C174.696 63.9782 174.696 48.6816 165.261 39.2469C155.826 29.8122 140.53 29.8122 131.095 39.2469C121.66 48.6816 121.66 63.9782 131.095 73.4128C140.53 82.8475 155.826 82.8475 165.261 73.4128Z" fill="#686DE0"/>
</g>
<mask id="mask1_25_50" style="mask-type:luminance" maskUnits="userSpaceOnUse" x="54" y="-7" width="148" height="129">
<path d="M201.314 46.4097L171.883 117.46C170.46 120.895 166.521 122.527 163.086 121.104L58.4557 77.7636C55.0205 76.3406 53.389 72.4019 54.812 68.9667L84.2426 -2.08377C85.6656 -5.51896 89.6043 -7.15042 93.0395 -5.72749L197.671 37.613C201.106 39.0359 202.737 42.9745 201.314 46.4097Z" fill="white"/>
</mask>
<g mask="url(#mask1_25_50)">
<path d="M106.142 82.7808C110.239 72.8897 105.542 61.55 95.6511 57.4529C85.76 53.3558 74.4203 58.0527 70.3232 67.9438C66.2261 77.8349 70.923 89.1746 80.8141 93.2717C90.7052 97.3689 102.045 92.6719 106.142 82.7808Z" fill="#F9CA24"/>
</g>
<mask id="mask2_25_50" style="mask-type:luminance" maskUnits="userSpaceOnUse" x="74" y="42" width="91" height="127">
<path d="M158.253 168.753H81.3499C77.6318 168.753 74.6173 165.739 74.6173 162.021V48.772C74.6173 45.0539 77.6318 42.0394 81.3499 42.0394H158.253C161.971 42.0394 164.985 45.0539 164.985 48.772V162.021C164.985 165.739 161.971 168.753 158.253 168.753Z" fill="white"/>
</mask>
<g mask="url(#mask2_25_50)">
<path d="M93.6262 69.5067C113.769 69.5067 130.097 53.178 130.097 33.0356C130.097 12.8931 113.769 -3.43555 93.6262 -3.43555C73.4837 -3.43555 57.1551 12.8931 57.1551 33.0356C57.1551 53.178 73.4837 69.5067 93.6262 69.5067Z" fill="#FF7979"/>
</g>
<mask id="mask3_25_50" style="mask-type:luminance" maskUnits="userSpaceOnUse" x="49" y="15" width="144" height="151">
<path d="M189.747 118.431L128.048 164.334C125.065 166.553 120.847 165.934 118.627 162.951L51.0292 72.0916C48.8099 69.1085 49.429 64.8906 52.4121 62.6713L114.111 16.768C117.094 14.5487 121.312 15.1679 123.532 18.1509L191.13 109.011C193.349 111.994 192.73 116.211 189.747 118.431Z" fill="white"/>
</mask>
<g mask="url(#mask3_25_50)">
<path d="M105.016 105.441C110.206 101.579 111.283 94.241 107.422 89.0506C103.56 83.8601 96.2219 82.7829 91.0315 86.6445C85.841 90.5061 84.7638 97.8443 88.6254 103.035C92.487 108.225 99.8252 109.302 105.016 105.441Z" fill="#686DE0"/>
</g>
<mask id="mask4_25_50" style="mask-type:luminance" maskUnits="userSpaceOnUse" x="74" y="42" width="91" height="127">
<path d="M158.253 168.753H81.3499C77.6318 168.753 74.6173 165.739 74.6173 162.021V48.772C74.6173 45.0539 77.6318 42.0394 81.3499 42.0394H158.253C161.971 42.0394 164.985 45.0539 164.985 48.772V162.021C164.985 165.739 161.971 168.753 158.253 168.753Z" fill="white"/>
</mask>
<g mask="url(#mask4_25_50)">
<path d="M153.282 80.9742C153.282 83.0986 151.56 84.8203 149.436 84.8203C147.312 84.8203 145.59 83.0986 145.59 80.9742C145.59 78.8498 147.312 77.1281 149.436 77.1281C151.56 77.1281 153.282 78.8498 153.282 80.9742Z" fill="#F9CA24"/>
</g>
<mask id="mask5_25_50" style="mask-type:luminance" maskUnits="userSpaceOnUse" x="74" y="42" width="91" height="127">
<path d="M158.253 168.753H81.3499C77.6318 168.753 74.6173 165.739 74.6173 162.021V48.772C74.6173 45.0539 77.6318 42.0394 81.3499 42.0394H158.253C161.971 42.0394 164.985 45.0539 164.985 48.772V162.021C164.985 165.739 161.971 168.753 158.253 168.753Z" fill="white"/>
</mask>
<g mask="url(#mask5_25_50)">
<path d="M145.165 98.5395C146.615 101.052 145.755 104.264 143.243 105.714C140.731 107.165 137.518 106.304 136.068 103.792C134.617 101.28 135.478 98.0674 137.99 96.6171C140.502 95.1661 143.715 96.0272 145.165 98.5395Z" fill="#FF7979"/>
</g>
<path d="M119.801 81.8085C127.885 81.8085 134.438 75.2556 134.438 67.1722C134.438 59.0889 127.885 52.536 119.801 52.536C111.718 52.536 105.165 59.0889 105.165 67.1722C105.165 75.2556 111.718 81.8085 119.801 81.8085Z" fill="#535C68"/>
<mask id="mask6_25_50" style="mask-type:luminance" maskUnits="userSpaceOnUse" x="105" y="52" width="30" height="30">
<path d="M119.801 81.8085C127.885 81.8085 134.438 75.2556 134.438 67.1722C134.438 59.0889 127.885 52.536 119.801 52.536C111.718 52.536 105.165 59.0889 105.165 67.1722C105.165 75.2556 111.718 81.8085 119.801 81.8085Z" fill="white"/>
</mask>
<g mask="url(#mask6_25_50)">
<path d="M119.801 68.9236C122.345 68.9236 124.407 66.8616 124.407 64.318C124.407 61.7744 122.345 59.7124 119.801 59.7124C117.258 59.7124 115.196 61.7744 115.196 64.318C115.196 66.8616 117.258 68.9236 119.801 68.9236Z" fill="white"/>
<path d="M127.539 85.2916H112.063V76.0764C112.063 73.0922 114.483 70.6736 117.466 70.6736H122.135C125.119 70.6736 127.538 73.0929 127.538 76.0764V85.2916H127.539Z" fill="white"/>
</g>
<path d="M151.295 122.535H88.3075C87.1009 122.535 86.1225 121.557 86.1225 120.35V114.474C86.1225 113.267 87.1009 112.289 88.3075 112.289H151.295C152.502 112.289 153.48 113.267 153.48 114.474V120.35C153.479 121.557 152.502 122.535 151.295 122.535Z" fill="#95AFC0"/>
<path d="M151.295 138.849H88.3075C87.1009 138.849 86.1225 137.871 86.1225 136.664V130.788C86.1225 129.581 87.1009 128.603 88.3075 128.603H151.295C152.502 128.603 153.48 129.581 153.48 130.788V136.664C153.479 137.871 152.502 138.849 151.295 138.849Z" fill="#95AFC0"/>
<path d="M109.801 151.288H88.3459C87.1184 151.288 86.1232 150.293 86.1232 149.065C86.1232 147.838 87.1184 146.842 88.3459 146.842H109.801C111.028 146.842 112.024 147.838 112.024 149.065C112.024 150.293 111.028 151.288 109.801 151.288Z" fill="#95AFC0"/>
<path d="M150.616 151.288H129.161C127.933 151.288 126.938 150.293 126.938 149.065C126.938 147.838 127.933 146.842 129.161 146.842H150.616C151.843 146.842 152.838 147.838 152.838 149.065C152.839 150.293 151.844 151.288 150.616 151.288Z" fill="#95AFC0"/>
<path d="M334.625 205.847H182.504C177.627 205.847 173.673 201.893 173.673 197.016V70.7638C173.673 65.8869 177.627 61.933 182.504 61.933H334.625C339.502 61.933 343.456 65.8869 343.456 70.7638V197.016C343.456 201.893 339.503 205.847 334.625 205.847Z" fill="#DFF9FB"/>
<mask id="mask7_25_50" style="mask-type:luminance" maskUnits="userSpaceOnUse" x="173" y="61" width="171" height="145">
<path d="M334.625 205.847H182.504C177.627 205.847 173.673 201.893 173.673 197.016V70.7638C173.673 65.8869 177.627 61.933 182.504 61.933H334.625C339.502 61.933 343.456 65.8869 343.456 70.7638V197.016C343.456 201.893 339.503 205.847 334.625 205.847Z" fill="white"/>
</mask>
<g mask="url(#mask7_25_50)">
<path d="M345.325 61.933H171.948V76.6642H345.325V61.933Z" fill="#686DE0"/>
</g>
<path d="M188.213 69.2986C188.213 70.4918 187.246 71.4587 186.053 71.4587C184.86 71.4587 183.893 70.4918 183.893 69.2986C183.893 68.1055 184.86 67.1386 186.053 67.1386C187.246 67.1386 188.213 68.1055 188.213 69.2986Z" fill="#EB4D4B"/>
<path d="M197.495 69.2986C197.495 70.4918 196.528 71.4587 195.335 71.4587C194.142 71.4587 193.175 70.4918 193.175 69.2986C193.175 68.1055 194.142 67.1386 195.335 67.1386C196.528 67.1386 197.495 68.1055 197.495 69.2986Z" fill="#F9CA24"/>
<path d="M206.778 69.2986C206.778 70.4918 205.811 71.4587 204.618 71.4587C203.425 71.4587 202.458 70.4918 202.458 69.2986C202.458 68.1055 203.425 67.1386 204.618 67.1386C205.811 67.1386 206.778 68.1055 206.778 69.2986Z" fill="#F9CA24"/>
<path d="M336.636 81.9021H302.137V116.402H336.636V81.9021Z" fill="#686DE0"/>
<path d="M215.512 164.641H181.013V199.141H215.512V164.641Z" fill="#FF7979"/>
<path d="M215.512 81.9021H181.013V116.402H215.512V81.9021Z" fill="#F9CA24"/>
<path d="M181.013 116.402L215.512 81.9021V116.402H181.013Z" fill="#F0932B"/>
<path d="M255.887 81.9021H221.388V116.402H255.887V81.9021Z" fill="#FF7979"/>
<path d="M235.51 88.1035H229.656V110.2H235.51V88.1035Z" fill="#DFF9FB"/>
<path d="M247.619 88.1035H241.764V110.2H247.619V88.1035Z" fill="#DFF9FB"/>
<path d="M296.262 81.9021H261.762V116.402H296.262V81.9021Z" fill="#F6E58D"/>
<path d="M290.25 87.9149H267.775V110.389H290.25V87.9149Z" fill="#DFF9FB"/>
<path d="M319.387 107.651C324.081 107.651 327.886 103.846 327.886 99.1522C327.886 94.4584 324.081 90.6534 319.387 90.6534C314.693 90.6534 310.888 94.4584 310.888 99.1522C310.888 103.846 314.693 107.651 319.387 107.651Z" fill="#F6E58D"/>
<path d="M215.512 121.95H181.013V156.45H215.512V121.95Z" fill="#F6E58D"/>
<path d="M198.263 129.329L186.865 149.07H209.66L198.263 129.329Z" fill="#F0932B"/>
<path d="M255.887 121.95H221.388V156.45H255.887V121.95Z" fill="#686DE0"/>
<path d="M255.887 156.449L221.388 136.345V156.449H255.887Z" fill="#F9CA24"/>
<path d="M296.262 121.95H261.762V156.45H296.262V121.95Z" fill="#F0932B"/>
<path d="M292.443 141.444C292.443 146.972 287.961 151.454 282.433 151.454C276.905 151.454 272.423 146.972 272.423 141.444C272.423 135.916 276.905 131.434 282.433 131.434C287.961 131.434 292.443 135.916 292.443 141.444Z" fill="#F9CA24"/>
<path d="M275.256 156.45L296.262 121.95V156.45H275.256Z" fill="#686DE0"/>
<path d="M336.636 121.95H302.137V156.45H336.636V121.95Z" fill="#FF7979"/>
<path d="M302.137 149.896L336.637 141.444V156.45H302.137V149.896Z" fill="#F9CA24"/>
<path d="M336.637 128.503L302.137 136.954V121.95H336.637V128.503Z" fill="#F9CA24"/>
<path d="M198.53 169.244V181.885H185.609C185.609 188.873 191.274 194.539 198.263 194.539C205.251 194.539 210.917 188.873 210.917 181.885C210.917 174.986 205.394 169.388 198.53 169.244Z" fill="#F9CA24"/>
<path d="M255.887 164.641H221.388V199.141H255.887V164.641Z" fill="#F0932B"/>
<path d="M255.887 181.891H221.388V199.142H255.887V181.891Z" fill="#686DE0"/>
<path d="M296.262 164.641H261.762V199.141H296.262V164.641Z" fill="#686DE0"/>
<path d="M289.72 171.808H268.304V179.327H289.72V171.808Z" fill="#F6E58D"/>
<path d="M289.72 184.455H268.304V191.974H289.72V184.455Z" fill="#F6E58D"/>
<path d="M336.636 164.641H302.137V199.141H336.636V164.641Z" fill="#F6E58D"/>
<path d="M302.137 164.641L336.637 199.141H302.137V164.641Z" fill="#F0932B"/>
<path d="M400.93 109.523H365.431C360.351 109.523 356.233 105.405 356.233 100.325V64.8257C356.233 59.746 360.351 55.6279 365.431 55.6279H400.93C406.01 55.6279 410.128 59.746 410.128 64.8257V100.325C410.128 105.405 406.01 109.523 400.93 109.523Z" fill="#686DE0"/>
<path d="M383.18 77.4648C386.813 77.4648 389.757 74.5201 389.757 70.8877C389.757 67.2552 386.813 64.3105 383.18 64.3105C379.548 64.3105 376.603 67.2552 376.603 70.8877C376.603 74.5201 379.548 77.4648 383.18 77.4648Z" fill="white"/>
<path d="M394.23 100.84H372.13V87.6806C372.13 83.4191 375.585 79.9649 379.846 79.9649H386.514C390.776 79.9649 394.23 83.4197 394.23 87.6806V100.84Z" fill="white"/>
<path d="M483.665 95.661H430.294C427.754 95.661 425.695 93.6019 425.695 91.0614V51.8559C425.695 49.3154 427.754 47.2564 430.294 47.2564H483.664C486.204 47.2564 488.263 49.3154 488.263 51.8559V91.0621C488.264 93.6019 486.204 95.661 483.665 95.661Z" fill="#DFF9FB"/>
<path d="M481.716 92.505H432.243C430.582 92.505 429.237 91.1591 429.237 89.4986V53.4187C429.237 51.7583 430.583 50.4123 432.243 50.4123H481.715C483.376 50.4123 484.721 51.7583 484.721 53.4187V89.4986C484.722 91.1591 483.376 92.505 481.716 92.505Z" fill="#686DE0"/>
<path d="M475.684 69.9385C478.952 67.7832 479.854 63.3871 477.699 60.1194C475.543 56.8518 471.147 55.9499 467.88 58.1052C464.612 60.2604 463.71 64.6565 465.865 67.9242C468.02 71.1919 472.417 72.0937 475.684 69.9385Z" fill="#F6E58D"/>
<mask id="mask8_25_50" style="mask-type:luminance" maskUnits="userSpaceOnUse" x="429" y="50" width="56" height="43">
<path d="M481.716 92.505H432.243C430.582 92.505 429.237 91.1591 429.237 89.4986V53.4187C429.237 51.7583 430.583 50.4123 432.243 50.4123H481.715C483.376 50.4123 484.721 51.7583 484.721 53.4187V89.4986C484.722 91.1591 483.376 92.505 481.716 92.505Z" fill="white"/>
</mask>
<g mask="url(#mask8_25_50)">
<path d="M451.626 61.2785L428.86 92.5051H474.392L451.626 61.2785Z" fill="#DFF9FB"/>
</g>
<path d="M245.705 244.957C245.657 240.462 242.003 236.831 237.497 236.831C236.293 236.831 235.153 237.097 234.124 237.562C231.86 233.079 227.216 230.002 221.85 230.002C214.958 230.002 209.252 235.076 208.26 241.691C207.856 241.567 207.427 241.499 206.983 241.499C204.892 241.499 203.148 242.984 202.747 244.956H245.705V244.957Z" fill="#DFF9FB"/>
<path d="M240.568 223.852C240.591 221.687 242.35 219.939 244.519 219.939C245.099 219.939 245.648 220.067 246.144 220.291C247.234 218.132 249.47 216.651 252.053 216.651C255.371 216.651 258.119 219.094 258.597 222.279C258.791 222.219 258.997 222.186 259.212 222.186C260.218 222.186 261.058 222.901 261.251 223.852H240.568Z" fill="#DFF9FB"/>
<path d="M185.482 224.711C185.516 221.428 188.185 218.777 191.477 218.777C192.356 218.777 193.189 218.971 193.941 219.31C195.594 216.035 198.986 213.789 202.905 213.789C207.939 213.789 212.107 217.494 212.832 222.326C213.127 222.235 213.44 222.186 213.765 222.186C215.292 222.186 216.566 223.27 216.858 224.711H185.482Z" fill="#DFF9FB"/>
<path opacity="0.05" d="M508.647 340.732C508.647 342.883 488.914 344.627 464.571 344.627C440.229 344.627 420.495 342.883 420.495 340.732C420.495 338.581 440.228 336.837 464.571 336.837C488.914 336.837 508.647 338.581 508.647 340.732Z" fill="#130F40"/>
<path d="M468.797 153.393H449.925V231.826H468.797V153.393Z" fill="white"/>
<path d="M449.746 154.117C449.746 154.117 451.6 158.837 458.454 158.837C466.777 158.837 469.441 154.132 469.441 154.132" stroke="#7ED6DF" stroke-width="0.336667" stroke-miterlimit="10" stroke-linecap="round" stroke-linejoin="round"/>
<path d="M446.552 336.194C446.552 335.073 445.643 334.164 444.522 334.164H438.297C438.297 334.164 429.561 333.781 429.561 340.8H446.552V336.194Z" fill="#DFF9FB"/>
<path d="M429.929 339.141H446.552" stroke="#7ED6DF" stroke-width="0.336667" stroke-miterlimit="10" stroke-linecap="round" stroke-linejoin="round"/>
<path d="M435.002 334.533L438.056 339.141" stroke="#7ED6DF" stroke-width="0.336667" stroke-miterlimit="10" stroke-linecap="round" stroke-linejoin="round"/>
<path d="M437.288 334.275L438.963 336.837" stroke="#7ED6DF" stroke-width="0.336667" stroke-miterlimit="10" stroke-linecap="round" stroke-linejoin="round"/>
<path d="M439.732 334.275L441.406 336.837" stroke="#7ED6DF" stroke-width="0.336667" stroke-miterlimit="10" stroke-linecap="round" stroke-linejoin="round"/>
<path d="M470.281 135.677C471.542 127.885 466.247 120.547 458.455 119.286C450.663 118.026 443.325 123.321 442.064 131.113C440.804 138.904 446.098 146.243 453.89 147.503C461.682 148.764 469.021 143.469 470.281 135.677Z" fill="#130F40"/>
<path d="M449.484 135.103C449.484 135.103 445.499 131.104 444.36 133.636C443.413 135.741 448.384 137.995 448.384 137.995L449.484 135.103Z" fill="#FFC2BD"/>
<path d="M445.543 134.146L447.863 135.404" stroke="#FF7979" stroke-width="0.336667" stroke-miterlimit="10" stroke-linecap="round" stroke-linejoin="round"/>
<path d="M426.842 320.638H460.019L472.132 231.826H438.955L426.842 320.638Z" fill="#FFBE76"/>
<path d="M508.647 320.638H475.47L463.358 231.826H496.534L508.647 320.638Z" fill="#FFBE76"/>
<path d="M467.744 263.994L465.376 246.631" stroke="#130F40" stroke-width="0.336667" stroke-miterlimit="10" stroke-linecap="round" stroke-linejoin="round"/>
<path d="M495.849 320.638L481.898 231.826" stroke="#130F40" stroke-width="0.336667" stroke-miterlimit="10" stroke-linecap="round" stroke-linejoin="round"/>
<path d="M443.107 320.638L451.613 260.409" stroke="#130F40" stroke-width="0.336667" stroke-miterlimit="10" stroke-linecap="round" stroke-linejoin="round"/>
<path d="M511.332 313.832H472.132V321.659H511.332V313.832Z" fill="#F6E58D"/>
<path d="M462.707 313.832H423.507V321.659H462.707V313.832Z" fill="#F6E58D"/>
<path opacity="0.1" d="M463.358 296.161L465.682 248.871L467.744 263.994L463.358 296.161Z" fill="black"/>
<path opacity="0.1" d="M432.532 278.921H439.954C442.785 278.921 445.079 276.627 445.079 273.796V268.089H433.919L432.532 278.921Z" fill="black"/>
<path d="M449.925 153.393V243.906H433.919V180.615L449.925 153.393Z" fill="#686DE0"/>
<path d="M449.925 153.393L443.076 154.605C435.397 155.964 428.991 161.249 426.198 168.53L415.516 196.382H439.313L449.925 153.393Z" fill="#686DE0"/>
<path d="M440.512 272.516H356.629C354.107 272.516 352.062 270.471 352.062 267.949V122.062C352.062 119.539 354.106 117.494 356.629 117.494H440.512C443.035 117.494 445.08 119.539 445.08 122.062V267.948C445.079 270.47 443.034 272.516 440.512 272.516Z" fill="#535C68"/>
<path d="M358.378 133.572V272.516" stroke="white" stroke-width="0.336667" stroke-miterlimit="10"/>
<path d="M366.872 139.858H364.448V140.974H366.872V139.858Z" fill="#C7ECEE"/>
<path d="M377.619 139.858H368.686V140.974H377.619V139.858Z" fill="#F9CA24"/>
<path d="M388.365 140.974H397.186V139.858H388.365H388.254H379.433V140.974H388.254H388.365Z" fill="#E056FD"/>
<path d="M366.872 150.711H364.448V151.828H366.872V150.711Z" fill="#C7ECEE"/>
<path d="M377.619 150.711H368.686V151.828H377.619V150.711Z" fill="#686DE0"/>
<path d="M388.254 150.711H379.433V151.828H388.254H388.365H397.186V150.711H388.365H388.254Z" fill="#BADC58"/>
<path d="M404.374 150.711H399V151.828H404.374H407.933H413.306V150.711H407.933H404.374Z" fill="#F9CA24"/>
<path d="M424.053 150.711H415.121V151.828H424.053V150.711Z" fill="#EB4D4B"/>
<path d="M429.561 150.711H425.867V151.828H429.561V150.711Z" fill="#E056FD"/>
<path d="M366.872 142.571H364.448V143.688H366.872V142.571Z" fill="#C7ECEE"/>
<path d="M377.619 143.688H385.539V142.571H377.619H376.607H368.686V143.688H376.607H377.619Z" fill="#E056FD"/>
<path d="M396.285 143.688H404.485V142.571H396.285H395.553H387.354V143.688H395.553H396.285Z" fill="#EB4D4B"/>
<path d="M409.859 142.571H406.299V143.688H409.859V142.571Z" fill="#BADC58"/>
<path d="M415.232 142.571H411.672V143.688H415.232V142.571Z" fill="#BADC58"/>
<path d="M366.872 145.285H364.448V146.401H366.872V145.285Z" fill="#C7ECEE"/>
<path d="M375.721 145.285H368.686V146.401H375.721V145.285Z" fill="#EB4D4B"/>
<path d="M386.551 145.285H377.619V146.401H386.551V145.285Z" fill="#686DE0"/>
<path d="M406.229 145.285H397.297H388.365V146.401H397.297H406.229V145.285Z" fill="#F9CA24"/>
<path d="M411.225 145.285H408.079V146.401H411.225V145.285Z" fill="#E056FD"/>
<path d="M366.872 137.356H364.448V138.472H366.872V137.356Z" fill="#C7ECEE"/>
<path d="M373.623 137.356H368.686V138.472H373.623V137.356Z" fill="#686DE0"/>
<path d="M378.349 137.356H375.438V138.472H378.349V137.356Z" fill="#EB4D4B"/>
<path d="M386.365 137.356H380.072V138.472H386.365V137.356Z" fill="#F9CA24"/>
<path d="M366.872 147.998H364.448V149.115H366.872V147.998Z" fill="#C7ECEE"/>
<path d="M383.219 147.998H377.619H377.514H368.686V149.115H377.514H377.619H383.219V147.998Z" fill="#E056FD"/>
<path d="M388.365 147.998H385.05V149.115H388.365V147.998Z" fill="#EB4D4B"/>
<path d="M392.054 147.998H390.18V149.115H392.054V147.998Z" fill="white"/>
<path d="M402.829 147.998H393.896V149.115H402.829V147.998Z" fill="#686DE0"/>
<path d="M366.872 157.027H364.448V158.143H366.872V157.027Z" fill="#C7ECEE"/>
<path d="M377.619 157.027H368.686V158.143H377.619V157.027Z" fill="#F9CA24"/>
<path d="M366.872 167.88H364.448V168.996H366.872V167.88Z" fill="#C7ECEE"/>
<path d="M377.619 167.88H368.686V168.996H377.619V167.88Z" fill="#686DE0"/>
<path d="M388.254 167.88H379.433V168.996H388.254H388.365H397.186V167.88H388.365H388.254Z" fill="#BADC58"/>
<path d="M407.865 167.88H398.933V168.996H407.865V167.88Z" fill="#EB4D4B"/>
<path d="M413.373 167.88H409.679V168.996H413.373V167.88Z" fill="#E056FD"/>
<path d="M366.872 159.74H364.448V160.856H366.872V159.74Z" fill="#C7ECEE"/>
<path d="M377.619 160.856H385.539V159.74H377.619H376.607H368.686V160.856H376.607H377.619Z" fill="#E056FD"/>
<path d="M366.872 162.453H364.448V163.569H366.872V162.453Z" fill="#C7ECEE"/>
<path d="M375.721 162.453H368.686V163.569H375.721V162.453Z" fill="#EB4D4B"/>
<path d="M386.551 162.453H377.619V163.569H386.551V162.453Z" fill="#686DE0"/>
<path d="M406.229 162.453H397.297H388.365V163.57H397.297H406.229V162.453Z" fill="#F9CA24"/>
<path d="M411.225 162.453H408.079V163.569H411.225V162.453Z" fill="#E056FD"/>
<path d="M366.872 154.524H364.448V155.641H366.872V154.524Z" fill="#C7ECEE"/>
<path d="M373.623 154.524H368.686V155.641H373.623V154.524Z" fill="#686DE0"/>
<path d="M378.349 154.524H375.438V155.641H378.349V154.524Z" fill="#EB4D4B"/>
<path d="M386.365 154.524H380.072V155.641H386.365V154.524Z" fill="#F9CA24"/>
<path d="M366.872 165.166H364.448V166.283H366.872V165.166Z" fill="#C7ECEE"/>
<path d="M383.219 165.166H377.619H377.514H368.686V166.283H377.514H377.619H383.219V165.166Z" fill="#E056FD"/>
<path d="M388.365 165.166H385.05V166.283H388.365V165.166Z" fill="#EB4D4B"/>
<path d="M392.054 165.166H390.18V166.283H392.054V165.166Z" fill="white"/>
<path d="M402.829 165.166H393.896V166.283H402.829V165.166Z" fill="#686DE0"/>
<path d="M366.872 174.195H364.448V175.312H366.872V174.195Z" fill="#C7ECEE"/>
<path d="M377.619 174.195H368.686V175.312H377.619V174.195Z" fill="#F9CA24"/>
<path d="M388.365 175.312H393.738V174.195H388.365H384.806H379.433V175.312H384.806H388.365Z" fill="#EB4D4B"/>
<path d="M404.485 174.195H395.553V175.312H404.485V174.195Z" fill="#E056FD"/>
<path d="M409.993 174.195H406.299V175.312H409.993V174.195Z" fill="#686DE0"/>
<path d="M366.872 185.049H364.448V186.165H366.872V185.049Z" fill="#C7ECEE"/>
<path d="M377.619 185.049H368.686V186.165H377.619V185.049Z" fill="#686DE0"/>
<path d="M366.872 176.908H364.448V178.024H366.872V176.908Z" fill="#C7ECEE"/>
<path d="M377.619 178.025H385.539V176.908H377.619H376.607H368.686V178.025H376.607H377.619Z" fill="#E056FD"/>
<path d="M396.285 178.025H404.485V176.908H396.285H395.553H387.354V178.025H395.553H396.285Z" fill="#EB4D4B"/>
<path d="M409.859 176.908H406.299V178.024H409.859V176.908Z" fill="#BADC58"/>
<path d="M415.232 176.908H411.672V178.024H415.232V176.908Z" fill="#BADC58"/>
<path d="M366.872 179.622H364.448V180.738H366.872V179.622Z" fill="#C7ECEE"/>
<path d="M375.721 179.622H368.686V180.738H375.721V179.622Z" fill="#EB4D4B"/>
<path d="M386.551 179.622H377.619V180.738H386.551V179.622Z" fill="#686DE0"/>
<path d="M406.229 179.622H397.297H388.365V180.738H397.297H406.229V179.622Z" fill="#F9CA24"/>
<path d="M411.225 179.622H408.079V180.738H411.225V179.622Z" fill="#E056FD"/>
<path d="M366.872 171.693H364.448V172.809H366.872V171.693Z" fill="#C7ECEE"/>
<path d="M373.623 171.693H368.686V172.809H373.623V171.693Z" fill="#686DE0"/>
<path d="M378.349 171.693H375.438V172.809H378.349V171.693Z" fill="#EB4D4B"/>
<path d="M386.365 171.693H380.072V172.809H386.365V171.693Z" fill="#F9CA24"/>
<path d="M366.872 187.562H364.448V188.679H366.872V187.562Z" fill="#C7ECEE"/>
<path d="M373.623 187.562H368.686V188.679H373.623V187.562Z" fill="#686DE0"/>
<path d="M378.349 187.562H375.438V188.679H378.349V187.562Z" fill="#EB4D4B"/>
<path d="M366.872 182.335H364.448V183.452H366.872V182.335Z" fill="#C7ECEE"/>
<path d="M383.219 182.335H377.619H377.514H368.686V183.452H377.514H377.619H383.219V182.335Z" fill="#E056FD"/>
<path d="M366.872 194.411H364.448V195.528H366.872V194.411Z" fill="#C7ECEE"/>
<path d="M377.619 239.614H368.686V240.73H377.619V239.614Z" fill="#F9CA24"/>
<path d="M388.365 239.614H397.186V240.73H388.365H388.254H379.433V239.614H388.254H388.365Z" fill="#E056FD"/>
<path d="M366.872 205.265H364.448V206.381H366.872V205.265Z" fill="#C7ECEE"/>
<path d="M377.619 228.76H368.686V229.876H377.619V228.76Z" fill="#686DE0"/>
<path d="M388.254 229.876H379.433V228.76H388.254H388.365H397.186V229.876H388.365H388.254Z" fill="#BADC58"/>
<path d="M404.374 229.876H399V228.76H404.374H407.933H413.306V229.876H407.933H404.374Z" fill="#F9CA24"/>
<path d="M424.053 228.76H415.121V229.876H424.053V228.76Z" fill="#EB4D4B"/>
<path d="M429.561 228.76H425.867V229.876H429.561V228.76Z" fill="#E056FD"/>
<path d="M366.872 197.125H364.448V198.241H366.872V197.125Z" fill="#C7ECEE"/>
<path d="M377.619 236.9H385.539V238.016H377.619H376.607H368.686V236.9H376.607H377.619Z" fill="#E056FD"/>
<path d="M396.285 236.9H404.485V238.016H396.285H395.553H387.354V236.9H395.553H396.285Z" fill="#EB4D4B"/>
<path d="M409.859 236.9H406.299V238.016H409.859V236.9Z" fill="#BADC58"/>
<path d="M415.232 236.9H411.672V238.016H415.232V236.9Z" fill="#BADC58"/>
<path d="M366.872 199.838H364.448V200.955H366.872V199.838Z" fill="#C7ECEE"/>
<path d="M375.721 234.187H368.686V235.303H375.721V234.187Z" fill="#EB4D4B"/>
<path d="M386.551 234.187H377.619V235.303H386.551V234.187Z" fill="#686DE0"/>
<path d="M406.229 235.304H397.297H388.365V234.187H397.297H406.229V235.304Z" fill="#F9CA24"/>
<path d="M411.225 234.187H408.079V235.303H411.225V234.187Z" fill="#E056FD"/>
<path d="M366.872 191.91H364.448V193.026H366.872V191.91Z" fill="#C7ECEE"/>
<path d="M373.623 242.116H368.686V243.232H373.623V242.116Z" fill="#686DE0"/>
<path d="M378.349 242.116H375.438V243.232H378.349V242.116Z" fill="#EB4D4B"/>
<path d="M386.365 242.116H380.072V243.232H386.365V242.116Z" fill="#F9CA24"/>
<path d="M366.872 202.552H364.448V203.668H366.872V202.552Z" fill="#C7ECEE"/>
<path d="M383.219 232.59H377.619H377.514H368.686V231.474H377.514H377.619H383.219V232.59Z" fill="#E056FD"/>
<path d="M388.365 231.474H385.05V232.59H388.365V231.474Z" fill="#EB4D4B"/>
<path d="M392.054 231.474H390.18V232.59H392.054V231.474Z" fill="white"/>
<path d="M402.829 231.474H393.896V232.59H402.829V231.474Z" fill="#686DE0"/>
<path d="M366.872 211.58H364.448V212.696H366.872V211.58Z" fill="#C7ECEE"/>
<path d="M377.619 222.445H368.686V223.561H377.619V222.445Z" fill="#F9CA24"/>
<path d="M366.872 222.433H364.448V223.55H366.872V222.433Z" fill="#C7ECEE"/>
<path d="M377.619 211.591H368.686V212.708H377.619V211.591Z" fill="#686DE0"/>
<path d="M388.254 212.709H379.433V211.591H388.254H388.365H397.186V212.709H388.365H388.254Z" fill="#BADC58"/>
<path d="M407.865 211.591H398.933V212.708H407.865V211.591Z" fill="#EB4D4B"/>
<path d="M413.373 211.591H409.679V212.708H413.373V211.591Z" fill="#E056FD"/>
<path d="M366.872 214.294H364.448V215.41H366.872V214.294Z" fill="#C7ECEE"/>
<path d="M377.619 219.731H385.539V220.848H377.619H376.607H368.686V219.731H376.607H377.619Z" fill="#E056FD"/>
<path d="M366.872 217.006H364.448V218.123H366.872V217.006Z" fill="#C7ECEE"/>
<path d="M375.721 217.019H368.686V218.135H375.721V217.019Z" fill="#EB4D4B"/>
<path d="M386.551 217.019H377.619V218.135H386.551V217.019Z" fill="#686DE0"/>
<path d="M406.229 218.135H397.297H388.365V217.019H397.297H406.229V218.135Z" fill="#F9CA24"/>
<path d="M411.225 217.019H408.079V218.135H411.225V217.019Z" fill="#E056FD"/>
<path d="M366.872 209.078H364.448V210.194H366.872V209.078Z" fill="#C7ECEE"/>
<path d="M373.623 224.947H368.686V226.063H373.623V224.947Z" fill="#686DE0"/>
<path d="M378.349 224.947H375.438V226.063H378.349V224.947Z" fill="#EB4D4B"/>
<path d="M386.365 224.947H380.072V226.063H386.365V224.947Z" fill="#F9CA24"/>
<path d="M366.872 219.72H364.448V220.836H366.872V219.72Z" fill="#C7ECEE"/>
<path d="M383.219 215.421H377.619H377.514H368.686V214.305H377.514H377.619H383.219V215.421Z" fill="#E056FD"/>
<path d="M388.365 214.305H385.05V215.421H388.365V214.305Z" fill="#EB4D4B"/>
<path d="M392.054 214.305H390.18V215.421H392.054V214.305Z" fill="white"/>
<path d="M402.829 214.305H393.896V215.421H402.829V214.305Z" fill="#686DE0"/>
<path d="M366.872 228.749H364.448V229.865H366.872V228.749Z" fill="#C7ECEE"/>
<path d="M377.619 205.277H368.686V206.393H377.619V205.277Z" fill="#F9CA24"/>
<path d="M388.365 205.277H393.738V206.393H388.365H384.806H379.433V205.277H384.806H388.365Z" fill="#EB4D4B"/>
<path d="M404.485 205.277H395.553V206.393H404.485V205.277Z" fill="#E056FD"/>
<path d="M409.993 206.393H406.299V205.277H409.993V206.393Z" fill="#686DE0"/>
<path d="M366.872 239.602H364.448V240.718H366.872V239.602Z" fill="#C7ECEE"/>
<path d="M377.619 194.423H368.686V195.54H377.619V194.423Z" fill="#686DE0"/>
<path d="M366.872 231.462H364.448V232.578H366.872V231.462Z" fill="#C7ECEE"/>
<path d="M377.619 202.563H385.539V203.68H377.619H376.607H368.686V202.563H376.607H377.619Z" fill="#E056FD"/>
<path d="M396.285 202.563H404.485V203.68H396.285H395.553H387.354V202.563H395.553H396.285Z" fill="#EB4D4B"/>
<path d="M409.859 202.563H406.299V203.68H409.859V202.563Z" fill="#BADC58"/>
<path d="M415.232 202.563H411.672V203.68H415.232V202.563Z" fill="#BADC58"/>
<path d="M366.872 234.175H364.448V235.291H366.872V234.175Z" fill="#C7ECEE"/>
<path d="M375.721 199.85H368.686V200.966H375.721V199.85Z" fill="#EB4D4B"/>
<path d="M386.551 199.85H377.619V200.966H386.551V199.85Z" fill="#686DE0"/>
<path d="M406.229 200.966H397.297H388.365V199.85H397.297H406.229V200.966Z" fill="#F9CA24"/>
<path d="M411.225 199.85H408.079V200.966H411.225V199.85Z" fill="#E056FD"/>
<path d="M366.872 226.247H364.448V227.363H366.872V226.247Z" fill="#C7ECEE"/>
<path d="M373.623 207.778H368.686V208.895H373.623V207.778Z" fill="#686DE0"/>
<path d="M378.349 207.778H375.438V208.895H378.349V207.778Z" fill="#EB4D4B"/>
<path d="M386.365 207.778H380.072V208.895H386.365V207.778Z" fill="#F9CA24"/>
<path d="M366.872 242.116H364.448V243.232H366.872V242.116Z" fill="#C7ECEE"/>
<path d="M373.623 191.91H368.686V193.026H373.623V191.91Z" fill="#686DE0"/>
<path d="M378.349 191.91H375.438V193.026H378.349V191.91Z" fill="#EB4D4B"/>
<path d="M366.872 236.889H364.448V238.005H366.872V236.889Z" fill="#C7ECEE"/>
<path d="M383.219 198.253H377.619H377.514H368.686V197.136H377.514H377.619H383.219V198.253Z" fill="#E056FD"/>
<path d="M388.365 197.136H385.05V198.253H388.365V197.136Z" fill="#EB4D4B"/>
<mask id="mask9_25_50" style="mask-type:luminance" maskUnits="userSpaceOnUse" x="352" y="117" width="94" height="156">
<path d="M440.512 272.516H356.629C354.107 272.516 352.062 270.471 352.062 267.949V122.062C352.062 119.539 354.106 117.494 356.629 117.494H440.512C443.035 117.494 445.08 119.539 445.08 122.062V267.948C445.079 270.47 443.034 272.516 440.512 272.516Z" fill="white"/>
</mask>
<g mask="url(#mask9_25_50)">
<path d="M450.252 117.494H343.831V133.572H450.252V117.494Z" fill="#686DE0"/>
</g>
<mask id="mask10_25_50" style="mask-type:luminance" maskUnits="userSpaceOnUse" x="352" y="117" width="94" height="156">
<path d="M440.512 272.516H356.629C354.107 272.516 352.062 270.471 352.062 267.949V122.062C352.062 119.539 354.106 117.494 356.629 117.494H440.512C443.035 117.494 445.08 119.539 445.08 122.062V267.948C445.079 270.47 443.034 272.516 440.512 272.516Z" fill="white"/>
</mask>
<g mask="url(#mask10_25_50)">
<path d="M448.999 246.631H337.621V278.922H448.999V246.631Z" fill="#F6E58D"/>
</g>
<path d="M383.218 254.145H359.909V256.124H383.218V254.145Z" fill="white"/>
<path d="M372.657 257.948H359.909V259.927H372.657V257.948Z" fill="white"/>
<path d="M367.345 261.752H359.909V263.731H367.345V261.752Z" fill="white"/>
<path d="M420.495 254.145H397.186V256.124H420.495V254.145Z" fill="white"/>
<path d="M409.934 257.948H397.186V259.927H409.934V257.948Z" fill="white"/>
<path d="M404.622 261.752H397.186V263.731H404.622V261.752Z" fill="white"/>
<path d="M362.27 124.927C362.27 126.001 361.399 126.873 360.324 126.873C359.249 126.873 358.378 126.001 358.378 124.927C358.378 123.852 359.249 122.981 360.324 122.981C361.399 122.981 362.27 123.852 362.27 124.927Z" fill="#EB4D4B"/>
<path d="M370.632 124.927C370.632 126.001 369.761 126.873 368.686 126.873C367.612 126.873 366.74 126.001 366.74 124.927C366.74 123.852 367.612 122.981 368.686 122.981C369.761 122.981 370.632 123.852 370.632 124.927Z" fill="#F9CA24"/>
<path d="M378.994 124.927C378.994 126.001 378.123 126.873 377.048 126.873C375.974 126.873 375.102 126.001 375.102 124.927C375.102 123.852 375.974 122.981 377.048 122.981C378.123 122.981 378.994 123.852 378.994 124.927Z" fill="#F9CA24"/>
<path d="M468.797 153.393V243.906H503.506L484.28 159.858L468.797 153.393Z" fill="#686DE0"/>
<g opacity="0.1">
<path d="M449.925 183.847L453.188 216.514L449.925 237.441V183.847Z" fill="black"/>
<path d="M444.893 211.282C444.893 211.282 451.741 211.921 454.166 208.986C454.166 208.986 466.713 217.663 480.622 217.918C494.531 218.173 496.361 212.67 496.361 212.67L495.323 208.133L454.166 206.136L444.894 207.341L444.893 211.282Z" fill="black"/>
</g>
<path d="M468.797 153.393L475.647 154.605C483.326 155.964 489.731 161.249 492.524 168.53L503.207 196.382H479.41L468.797 153.393Z" fill="#686DE0"/>
<path d="M479.41 196.382L474.415 176.149" stroke="#130F40" stroke-width="0.336667" stroke-miterlimit="10" stroke-linecap="round" stroke-linejoin="round"/>
<path d="M479.41 196.382H454.165V206.135C454.165 206.135 464.544 212.771 482.068 213.451C499.592 214.132 499.082 196.382 499.082 196.382H479.41V196.382Z" fill="#FFC2BD"/>
<path d="M454.166 196.382C454.166 196.382 453.315 192.61 447.276 192.61C441.236 192.61 438.088 193.545 438.258 194.992C438.429 196.438 441.917 196.382 441.917 196.382C441.917 196.382 437.748 196.268 437.493 198.054C437.238 199.84 441.831 199.925 441.831 199.925C441.831 199.925 438.684 200.265 438.769 201.797C438.854 203.328 441.746 203.243 441.746 203.243C441.746 203.243 439.79 203.736 439.79 204.927C439.79 206.118 450.168 210.134 454.166 206.136V196.382Z" fill="#FFC2BD"/>
<path d="M441.916 196.382L449.487 196.097" stroke="#FF7979" stroke-width="0.336667" stroke-miterlimit="10" stroke-linecap="round" stroke-linejoin="round"/>
<path d="M441.83 199.925L449.487 200.096" stroke="#FF7979" stroke-width="0.336667" stroke-miterlimit="10" stroke-linecap="round" stroke-linejoin="round"/>
<path d="M441.746 203.243L449.487 203.881" stroke="#FF7979" stroke-width="0.336667" stroke-miterlimit="10" stroke-linecap="round" stroke-linejoin="round"/>
<path d="M449.925 192.901C449.925 192.901 449.147 184.741 446.637 184.614C444.128 184.486 445.404 193.673 445.404 193.673L449.925 192.901Z" fill="#FFC2BD"/>
<path d="M445.079 192.656L448.594 192.61" stroke="#FF7979" stroke-width="0.336667" stroke-miterlimit="10" stroke-linecap="round" stroke-linejoin="round"/>
<path opacity="0.1" d="M473.391 243.906L499.083 250.519L498.182 243.906H473.391Z" fill="black"/>
<path opacity="0.1" d="M481.898 196.239L497.256 204.926C497.256 204.926 499.252 201.771 499.082 196.382L481.898 196.239Z" fill="black"/>
<path d="M439.534 321.659L438.513 334.164H445.079L449.487 321.659H439.534Z" fill="#FFC2BD"/>
<path d="M486.248 321.659L489.758 334.164H496.325L496.2 321.659H486.248Z" fill="#FFC2BD"/>
<path opacity="0.1" d="M439.263 324.975H448.318L449.487 321.659H439.534L439.263 324.975Z" fill="black"/>
<path opacity="0.1" d="M487.179 324.975H496.325L496.2 321.659H486.248L487.179 324.975Z" fill="black"/>
<path d="M461.581 137.995L467.891 153.393C467.891 153.393 465.726 157.114 459.361 157.114C452.996 157.114 451.303 153.393 451.303 153.393L452.856 145.374L461.581 137.995Z" fill="#FFC2BD"/>
<path opacity="0.1" d="M452.377 147.845C452.377 147.845 454.156 148.58 457.118 147.225C461.581 145.184 461.581 137.995 461.581 137.995L452.855 145.374L452.377 147.845Z" fill="black"/>
<path d="M454.096 145.482C458.23 145.482 461.582 142.13 461.582 137.995C461.582 133.861 458.23 130.509 454.096 130.509C449.961 130.509 446.61 133.861 446.61 137.995C446.61 142.13 449.961 145.482 454.096 145.482Z" fill="#FFC2BD"/>
<path d="M458.455 135.103C458.455 135.103 463.702 131.147 465.361 133.636C467.02 136.124 459.938 137.995 459.938 137.995L458.455 135.103Z" fill="#FFC2BD"/>
<path d="M463.766 134.146L460.639 135.404" stroke="#FF7979" stroke-width="0.336667" stroke-miterlimit="10" stroke-linecap="round" stroke-linejoin="round"/>
<path d="M450.945 137.485C450.945 139.74 449.117 141.568 446.862 141.568C444.607 141.568 442.778 139.74 442.778 137.485C442.778 135.23 444.607 133.402 446.862 133.402C449.117 133.402 450.945 135.23 450.945 137.485Z" stroke="white" stroke-width="0.673333" stroke-miterlimit="10"/>
<path d="M460.233 137.485C460.233 139.74 458.405 141.568 456.15 141.568C453.895 141.568 452.067 139.74 452.067 137.485C452.067 135.23 453.895 133.402 456.15 133.402C458.405 133.401 460.233 135.23 460.233 137.485Z" stroke="white" stroke-width="0.673333" stroke-miterlimit="10"/>
<path d="M451.516 142.334L453.728 141.994C453.728 141.994 453.089 143.822 451.516 142.334Z" fill="white"/>
<path d="M454.514 138.197C454.514 138.197 455.758 137.496 457.194 138.197" stroke="#FF7979" stroke-width="0.336667" stroke-miterlimit="10" stroke-linecap="round" stroke-linejoin="round"/>
<path d="M447.375 138.197C447.375 138.197 448.619 137.496 450.054 138.197" stroke="#FF7979" stroke-width="0.336667" stroke-miterlimit="10" stroke-linecap="round" stroke-linejoin="round"/>
<path d="M497.797 336.194C497.797 335.073 496.888 334.164 495.767 334.164H489.543C489.543 334.164 480.806 333.781 480.806 340.8H497.797V336.194Z" fill="#DFF9FB"/>
<path d="M481.174 339.141H497.797" stroke="#7ED6DF" stroke-width="0.336667" stroke-miterlimit="10" stroke-linecap="round" stroke-linejoin="round"/>
<path d="M486.247 334.533L489.302 339.141" stroke="#7ED6DF" stroke-width="0.336667" stroke-miterlimit="10" stroke-linecap="round" stroke-linejoin="round"/>
<path d="M488.533 334.275L490.209 336.837" stroke="#7ED6DF" stroke-width="0.336667" stroke-miterlimit="10" stroke-linecap="round" stroke-linejoin="round"/>
<path d="M490.977 334.275L492.652 336.837" stroke="#7ED6DF" stroke-width="0.336667" stroke-miterlimit="10" stroke-linecap="round" stroke-linejoin="round"/>
<path opacity="0.1" d="M475.135 196.382V180.53L479.41 196.382H475.135Z" fill="black"/>
<path opacity="0.05" d="M183.843 338.245C183.843 340.396 158.622 342.14 127.51 342.14C96.3976 342.14 71.1765 340.396 71.1765 338.245C71.1765 336.093 96.3976 334.35 127.51 334.35C158.622 334.35 183.843 336.093 183.843 338.245Z" fill="#130F40"/>
<path d="M99.903 272.055V322.184" stroke="#130F40" stroke-width="0.505" stroke-miterlimit="10" stroke-linecap="round" stroke-linejoin="round"/>
<path d="M99.903 283.871C101.788 283.871 103.315 285.399 103.315 287.283V334.834C103.315 336.718 101.787 338.246 99.903 338.246C98.0183 338.246 96.4912 336.718 96.4912 334.834V287.283C96.4912 285.399 98.0183 283.871 99.903 283.871Z" fill="#FFBE76"/>
<path d="M81.8644 305.921H119.428" stroke="#130F40" stroke-width="0.505" stroke-miterlimit="10" stroke-linecap="round" stroke-linejoin="round"/>
<path d="M89.3135 268.312L78.5394 322.492" stroke="#130F40" stroke-width="0.505" stroke-miterlimit="10" stroke-linecap="round" stroke-linejoin="round"/>
<path d="M86.0114 284.915C87.8597 285.283 89.0596 287.079 88.692 288.927L79.4182 335.565C79.0505 337.413 77.2547 338.613 75.4064 338.246C73.5581 337.878 72.3583 336.083 72.7252 334.234L81.999 287.597C82.3674 285.748 84.1631 284.548 86.0114 284.915Z" fill="#FFBE76"/>
<path d="M111.102 268.312L121.876 322.492" stroke="#130F40" stroke-width="0.505" stroke-miterlimit="10" stroke-linecap="round" stroke-linejoin="round"/>
<path d="M114.403 284.915C112.555 285.283 111.355 287.079 111.723 288.927L120.996 335.565C121.364 337.413 123.16 338.613 125.008 338.246C126.857 337.878 128.056 336.083 127.689 334.234L118.416 287.597C118.048 285.748 116.252 284.548 114.403 284.915Z" fill="#FFBE76"/>
<path d="M62.9538 207.941H102.087V260.519C102.087 260.519 79.6282 265.072 68.6011 256.435C57.5739 247.799 62.9538 207.941 62.9538 207.941Z" fill="#F6E58D"/>
<path d="M62.9538 207.941L58.2061 235.221C54.0274 259.234 74.8025 280.246 98.8445 276.24C107.445 274.806 114.61 272.886 117.572 270.322L87.8557 264.98C74.9109 261.338 65.6714 249.926 64.8028 236.507L62.9538 207.941Z" fill="#FFBE76"/>
<path d="M97.5174 184.525L95.7768 188.772L95.8468 249.518L112.723 249.999L112.366 188.772L110.589 184.525H97.5174Z" fill="white"/>
<path d="M91.5139 187.995C91.5139 187.995 94.6072 195.652 103.468 195.652C112.329 195.652 116.53 190.207 116.53 190.207" stroke="#7ED6DF" stroke-width="0.336667" stroke-miterlimit="10" stroke-linecap="round" stroke-linejoin="round"/>
<path d="M112.33 188.772V252.255H134.062L135.04 208.465C135.04 208.465 130.802 197.565 125.245 191.161C121.566 186.923 116.202 184.525 110.59 184.525L112.33 188.772Z" fill="#F0932B"/>
<path d="M117.795 249.518H159.599C166.22 249.518 171.722 254.621 172.22 261.222L175.953 310.653H146.991L139.52 270.322H115.182L117.795 249.518Z" fill="#4834D4"/>
<path d="M162.066 310.653L158.062 262.24C157.822 259.329 155.389 257.089 152.468 257.089H129.656" stroke="#130F40" stroke-width="0.336667" stroke-miterlimit="10" stroke-linecap="round" stroke-linejoin="round"/>
<path d="M145.567 319.151H179.46L178.554 310.653H144.661L145.567 319.151Z" fill="#7ED6DF"/>
<path opacity="0.1" d="M163.326 249.999L149.725 267.553L144.07 294.887L139.082 249.999H163.326Z" fill="black"/>
<path d="M95.8468 249.518H139.607C144.815 249.518 148.856 254.061 148.25 259.233L142.221 310.653H113.259L117.571 270.322H93.2336L95.8468 249.518Z" fill="#686DE0"/>
<path d="M129.348 310.653L136.204 264.684C136.8 260.684 133.702 257.089 129.657 257.089H95.7768" stroke="#130F40" stroke-width="0.336667" stroke-miterlimit="10" stroke-linecap="round" stroke-linejoin="round"/>
<path d="M143.576 319.151H109.683L110.589 310.653H144.482L143.576 319.151Z" fill="#7ED6DF"/>
<path opacity="0.1" d="M95.8468 249.518L119.797 265.341L123.335 260.577L122.28 266.191L125.672 270.322L120.772 269.594L122.28 274.018L115.777 287.106L117.572 270.322H95.7768L95.8468 249.518Z" fill="black"/>
<path d="M122.28 206.131L125.672 232.845" stroke="#130F40" stroke-width="0.336667" stroke-miterlimit="10" stroke-linecap="round" stroke-linejoin="round"/>
<path d="M95.7768 188.772V285.587H74.0456V206.128C74.0456 206.128 77.3052 197.565 82.8629 191.161C86.5413 186.923 91.9058 184.525 97.5174 184.525L95.7768 188.772Z" fill="#F0932B"/>
<path opacity="0.1" d="M74.0456 237.48V242.601C74.0456 242.601 75.5768 248.327 82.8926 250.539C88.1499 252.129 95.7768 251.56 95.7768 251.56V242.713L74.0456 237.48Z" fill="black"/>
<path d="M89.9814 186.033C76.1565 192.15 67.2396 205.845 67.2396 220.963C67.2396 233.914 77.7389 244.414 90.6904 244.414H112.723V219.616L88.8489 220.634L89.9814 186.033Z" fill="#F0932B"/>
<path d="M95.7768 244.414H90.6911" stroke="#130F40" stroke-width="0.336667" stroke-miterlimit="10" stroke-linecap="round" stroke-linejoin="round"/>
<path d="M95.7768 220.339H85.2748" stroke="#130F40" stroke-width="0.336667" stroke-miterlimit="10" stroke-linecap="round" stroke-linejoin="round"/>
<path d="M90.4083 220.339L91.5139 206.128" stroke="#130F40" stroke-width="0.336667" stroke-miterlimit="10" stroke-linecap="round" stroke-linejoin="round"/>
<path d="M107.518 219.838V244.414" stroke="#130F40" stroke-width="0.336667" stroke-miterlimit="10" stroke-linecap="round" stroke-linejoin="round"/>
<path d="M112.723 220.339L119.047 219.838L126.703 218.043C126.703 218.043 128.66 222.466 125.597 225.018C122.535 227.57 119.472 226.911 119.472 226.911L112.276 230.865L112.723 220.339Z" fill="#FFC2BD"/>
<path d="M123.335 226.395C123.335 226.395 126.762 232.399 128.74 232.126C130.719 231.853 125.671 226.592 125.671 226.592C125.671 226.592 130.956 231.185 132.232 229.654C133.508 228.123 127.318 224.55 127.318 224.55C127.318 224.55 132.381 229.316 133.912 227.657C135.444 225.997 129.344 222.182 129.344 222.182C129.344 222.182 133.669 226.018 135.2 224.231C136.732 222.445 126.702 218.043 126.702 218.043L123.335 226.395Z" fill="#FFC2BD"/>
<path d="M114.185 170.482C114.185 170.482 118.17 166.484 119.308 169.015C120.255 171.121 115.285 173.375 115.285 173.375L114.185 170.482Z" fill="#FFC2BD"/>
<path d="M118.125 169.526L115.806 170.784" stroke="#FF7979" stroke-width="0.336667" stroke-miterlimit="10" stroke-linecap="round" stroke-linejoin="round"/>
<path d="M102.087 173.375L95.7768 188.773C95.7768 188.773 97.9416 192.494 104.307 192.494C110.672 192.494 112.365 188.773 112.365 188.773L110.812 180.755L102.087 173.375Z" fill="#FFC2BD"/>
<path opacity="0.1" d="M111.391 183.785C111.391 183.785 107.814 185.045 105.214 183.402C101.064 180.782 102.087 173.375 102.087 173.375L110.813 180.754L111.391 183.785Z" fill="black"/>
<path d="M110.194 180.835C114.314 180.494 117.378 176.877 117.037 172.757C116.696 168.637 113.079 165.573 108.959 165.914C104.838 166.255 101.775 169.872 102.116 173.992C102.457 178.113 106.073 181.176 110.194 180.835Z" fill="#FFC2BD"/>
<path d="M105.214 170.482C105.214 170.482 99.9669 166.527 98.3078 169.015C96.6488 171.504 103.731 173.375 103.731 173.375L105.214 170.482Z" fill="#FFC2BD"/>
<path d="M99.903 169.526L103.029 170.784" stroke="#FF7979" stroke-width="0.336667" stroke-miterlimit="10" stroke-linecap="round" stroke-linejoin="round"/>
<path d="M112.153 177.713L109.941 177.373C109.941 177.373 110.579 179.202 112.153 177.713Z" fill="white"/>
<path d="M109.154 173.577C109.154 173.577 107.91 172.875 106.474 173.577" stroke="#FF7979" stroke-width="0.336667" stroke-miterlimit="10" stroke-linecap="round" stroke-linejoin="round"/>
<path d="M116.294 173.577C116.294 173.577 115.05 172.875 113.614 173.577" stroke="#FF7979" stroke-width="0.336667" stroke-miterlimit="10" stroke-linecap="round" stroke-linejoin="round"/>
<path d="M106.159 169.043L104.171 168.193" stroke="#130F40" stroke-width="0.336667" stroke-miterlimit="10" stroke-linecap="round" stroke-linejoin="round"/>
<path d="M105.214 169.6L103.469 169.043" stroke="#130F40" stroke-width="0.336667" stroke-miterlimit="10" stroke-linecap="round" stroke-linejoin="round"/>
<path d="M122.503 154.809C120.887 151.874 109.629 149.223 106.821 150.754C104.285 152.138 104.464 164.711 104.523 167.126C104.529 167.366 104.696 167.564 104.929 167.618L116.227 170.242C116.447 170.293 116.671 170.204 116.789 170.011C117.981 168.075 124.147 157.793 122.503 154.809Z" fill="#130F40"/>
<path opacity="0.1" d="M95.7768 244.414L95.83 248.29L108.626 249.433L112.723 244.414L115.182 233.61L119.472 226.911L112.276 230.864L112.723 244.414H95.7768Z" fill="black"/>
<path d="M170.225 247.597H125.871C124.286 247.597 123.09 246.158 123.379 244.6L129.691 210.539C129.913 209.337 130.961 208.466 132.183 208.466H176.536C178.122 208.466 179.318 209.904 179.029 211.464L172.717 245.524C172.494 246.725 171.447 247.597 170.225 247.597Z" fill="#22A6B3"/>
<path d="M172.037 247.597H127.684C126.099 247.597 124.902 246.158 125.191 244.6L131.503 210.539C131.726 209.337 132.774 208.466 133.996 208.466H178.349C179.935 208.466 181.131 209.904 180.842 211.464L174.53 245.524C174.308 246.725 173.259 247.597 172.037 247.597Z" fill="#7ED6DF"/>
<path d="M172.655 249.999H123.12V247.597H172.655C173.319 247.597 173.857 248.135 173.857 248.798C173.857 249.461 173.319 249.999 172.655 249.999Z" fill="#7ED6DF"/>
<path d="M124.471 249.999H103.288C102.625 249.999 102.087 249.461 102.087 248.798C102.087 248.135 102.625 247.597 103.288 247.597H124.471C125.134 247.597 125.672 248.135 125.672 248.798C125.672 249.461 125.134 249.999 124.471 249.999Z" fill="#22A6B3"/>
<mask id="mask11_25_50" style="mask-type:luminance" maskUnits="userSpaceOnUse" x="123" y="247" width="51" height="3">
<path d="M172.655 249.999H123.12V247.597H172.655C173.319 247.597 173.857 248.135 173.857 248.798C173.857 249.461 173.319 249.999 172.655 249.999Z" fill="white"/>
</mask>
<g mask="url(#mask11_25_50)">
<path d="M163.326 246.851H139.082V249.999H163.326V246.851Z" fill="#130F40"/>
</g>
<path d="M152.532 220.991L149.725 227.116H154.319L152.532 232.22L157.637 225.074H153.681L155.935 220.991H152.532Z" fill="white"/>
<path d="M166.853 333.641C166.853 332.52 167.762 331.611 168.883 331.611H175.107C175.107 331.611 183.843 331.229 183.843 338.247H166.853V333.641Z" fill="#F0932B"/>
<path d="M183.476 336.587H166.853" stroke="#130F40" stroke-width="0.336667" stroke-miterlimit="10" stroke-linecap="round" stroke-linejoin="round"/>
<path d="M178.403 331.979L175.348 336.587" stroke="#130F40" stroke-width="0.336667" stroke-miterlimit="10" stroke-linecap="round" stroke-linejoin="round"/>
<path d="M176.116 331.722L174.442 334.284" stroke="#130F40" stroke-width="0.336667" stroke-miterlimit="10" stroke-linecap="round" stroke-linejoin="round"/>
<path d="M173.673 331.722L171.998 334.284" stroke="#130F40" stroke-width="0.336667" stroke-miterlimit="10" stroke-linecap="round" stroke-linejoin="round"/>
<path d="M173.871 319.105L174.891 331.61H168.325L163.917 319.105H173.871Z" fill="#FFC2BD"/>
<path d="M127.157 319.105L123.646 331.61H117.08L117.204 319.105H127.157Z" fill="#FFC2BD"/>
<path d="M115.607 333.641C115.607 332.52 116.516 331.611 117.637 331.611H123.862C123.862 331.611 132.598 331.229 132.598 338.247H115.607V333.641Z" fill="#F0932B"/>
<path d="M132.23 336.587H115.607" stroke="#130F40" stroke-width="0.336667" stroke-miterlimit="10" stroke-linecap="round" stroke-linejoin="round"/>
<path d="M127.157 331.979L124.103 336.587" stroke="#130F40" stroke-width="0.336667" stroke-miterlimit="10" stroke-linecap="round" stroke-linejoin="round"/>
<path d="M124.871 331.722L123.196 334.284" stroke="#130F40" stroke-width="0.336667" stroke-miterlimit="10" stroke-linecap="round" stroke-linejoin="round"/>
<path d="M122.427 331.722L120.753 334.284" stroke="#130F40" stroke-width="0.336667" stroke-miterlimit="10" stroke-linecap="round" stroke-linejoin="round"/>
<path opacity="0.05" d="M293.714 339.604C318.057 339.604 337.79 336.886 337.79 333.533C337.79 330.181 318.057 327.463 293.714 327.463C269.371 327.463 249.638 330.181 249.638 333.533C249.638 336.886 269.371 339.604 293.714 339.604Z" fill="#130F40"/>
<path d="M298.557 234.562H288.872C276.022 234.562 265.606 244.979 265.606 257.829V290.779H321.823V257.829C321.823 244.979 311.406 234.562 298.557 234.562Z" fill="#686DE0"/>
<path d="M285.976 206.641C285.976 206.641 287.042 200.712 296.411 201.43C310.145 202.483 312.15 230.681 312.15 230.681H275.124C275.124 230.681 275.124 204.697 285.976 206.641Z" fill="#130F40"/>
<path d="M298.134 222.16L302.646 234.702C302.646 234.702 301.125 239.201 293.429 239.201C285.734 239.201 284.782 234.702 284.782 234.702L289.198 222.16H298.134Z" fill="#FFC2BD"/>
<path d="M298.901 218.343C298.901 218.343 305.244 213.56 307.249 216.569C309.254 219.577 300.692 221.84 300.692 221.84L298.901 218.343Z" fill="#FFC2BD"/>
<path d="M305.321 217.186L301.541 218.708" stroke="#FF7979" stroke-width="0.336667" stroke-miterlimit="10" stroke-linecap="round" stroke-linejoin="round"/>
<path d="M288.616 218.343C288.616 218.343 282.273 213.56 280.267 216.569C278.262 219.577 286.824 221.84 286.824 221.84L288.616 218.343Z" fill="#FFC2BD"/>
<path d="M282.196 217.186L285.976 218.708" stroke="#FF7979" stroke-width="0.336667" stroke-miterlimit="10" stroke-linecap="round" stroke-linejoin="round"/>
<path opacity="0.1" d="M287.758 226.248L287.259 227.667C287.259 227.667 288.528 231.525 293.714 231.525C298.9 231.525 300.115 227.667 300.115 227.667L299.65 226.248H287.758Z" fill="black"/>
<path d="M302.7 221.284C303.321 216.323 299.804 211.799 294.843 211.178C289.883 210.557 285.359 214.075 284.738 219.035C284.117 223.995 287.635 228.52 292.595 229.141C297.555 229.761 302.08 226.244 302.7 221.284Z" fill="#FFC2BD"/>
<path d="M301.98 216.489C301.98 216.489 293.007 218.459 288.925 212.5C288.925 212.5 293.097 209.116 297.494 210.814C301.891 212.511 301.98 216.489 301.98 216.489Z" fill="#130F40"/>
<path d="M292.377 226.962L295.051 226.55C295.051 226.55 294.279 228.761 292.377 226.962Z" fill="white"/>
<path d="M298.076 222.16C298.076 222.59 297.727 222.939 297.297 222.939C296.866 222.939 296.518 222.59 296.518 222.16C296.518 221.73 296.866 221.381 297.297 221.381C297.727 221.381 298.076 221.73 298.076 222.16Z" fill="#130F40"/>
<path d="M290.91 222.16C290.91 222.59 290.561 222.939 290.131 222.939C289.701 222.939 289.352 222.59 289.352 222.16C289.352 221.73 289.701 221.381 290.131 221.381C290.561 221.381 290.91 221.73 290.91 222.16Z" fill="#130F40"/>
<path d="M296.04 217.113C296.04 217.113 297.698 215.969 299.858 216.779" stroke="#130F40" stroke-width="0.336667" stroke-miterlimit="10" stroke-linecap="round" stroke-linejoin="round"/>
<path d="M291.389 217.113C291.389 217.113 289.73 215.969 287.57 216.779" stroke="#130F40" stroke-width="0.336667" stroke-miterlimit="10" stroke-linecap="round" stroke-linejoin="round"/>
<path d="M293.036 220.512C293.036 223.239 290.825 225.449 288.099 225.449C285.373 225.449 283.162 223.239 283.162 220.512C283.162 217.786 285.373 215.576 288.099 215.576C290.825 215.576 293.036 217.785 293.036 220.512Z" stroke="white" stroke-width="0.673333" stroke-miterlimit="10"/>
<path d="M304.266 220.512C304.266 223.239 302.055 225.449 299.329 225.449C296.602 225.449 294.392 223.239 294.392 220.512C294.392 217.786 296.602 215.576 299.329 215.576C302.055 215.576 304.266 217.785 304.266 220.512Z" stroke="white" stroke-width="0.673333" stroke-miterlimit="10"/>
<path d="M284.01 234.562V285.7H252.044C252.044 285.7 260.449 234.562 284.01 234.562Z" fill="#DFF9FB"/>
<path d="M303.227 234.562V285.7H335.194C335.194 285.7 326.789 234.562 303.227 234.562Z" fill="#DFF9FB"/>
<path d="M296.131 313.191L280.756 308.634C280.756 308.634 274.952 314.168 272.824 313.191C270.697 312.212 277.661 303.724 277.661 303.724H300.21L296.131 313.191Z" fill="#FFC2BD"/>
<path d="M280.362 303.724C280.362 303.724 299.619 280.872 329.798 278.841C359.978 276.809 374.134 299.444 369.522 316.275C364.911 333.105 333.494 345.1 294.647 326.044L302.883 304.667L280.362 303.724Z" fill="#FFBE76"/>
<path d="M342.566 292.189C342.566 292.189 329.236 292.963 317.813 298.38" stroke="#130F40" stroke-width="0.336667" stroke-miterlimit="10" stroke-linecap="round" stroke-linejoin="round"/>
<path d="M304.229 312.031C304.229 312.031 344.792 329.527 367.861 298.381" stroke="#130F40" stroke-width="0.336667" stroke-miterlimit="10" stroke-linecap="round" stroke-linejoin="round"/>
<path d="M335.384 293.092C335.384 293.092 337.149 290.062 339.664 288.32" stroke="#130F40" stroke-width="0.336667" stroke-miterlimit="10" stroke-linecap="round" stroke-linejoin="round"/>
<path d="M296.973 328.886L310.293 297.971L303.884 295.21L290.564 326.125L296.973 328.886Z" fill="#F6E58D"/>
<path d="M291.297 313.191L306.672 308.634C306.672 308.634 312.476 314.168 314.603 313.191C316.731 312.212 309.767 303.724 309.767 303.724H287.218L291.297 313.191Z" fill="#FFC2BD"/>
<path d="M307.067 303.724C307.067 303.724 287.809 280.872 257.63 278.841C227.45 276.809 213.295 299.444 217.906 316.275C222.518 333.105 253.935 345.1 292.781 326.044L284.545 304.667L307.067 303.724Z" fill="#FFBE76"/>
<path d="M244.862 292.189C244.862 292.189 258.192 292.963 269.616 298.38" stroke="#130F40" stroke-width="0.336667" stroke-miterlimit="10" stroke-linecap="round" stroke-linejoin="round"/>
<path d="M283.2 312.031C283.2 312.031 242.637 329.527 219.567 298.381" stroke="#130F40" stroke-width="0.336667" stroke-miterlimit="10" stroke-linecap="round" stroke-linejoin="round"/>
<path d="M252.044 293.092C252.044 293.092 250.279 290.062 247.764 288.32" stroke="#130F40" stroke-width="0.336667" stroke-miterlimit="10" stroke-linecap="round" stroke-linejoin="round"/>
<path d="M296.846 326.108L283.526 295.192L277.118 297.953L290.438 328.869L296.846 326.108Z" fill="#F6E58D"/>
<mask id="mask12_25_50" style="mask-type:luminance" maskUnits="userSpaceOnUse" x="280" y="278" width="91" height="58">
<path d="M280.362 303.724C280.362 303.724 299.619 280.872 329.798 278.841C359.978 276.809 374.134 299.444 369.522 316.275C364.911 333.105 333.494 345.1 294.647 326.044L302.883 304.667L280.362 303.724Z" fill="white"/>
</mask>
<g mask="url(#mask12_25_50)">
<path opacity="0.1" d="M370.345 307.245C370.345 307.245 366.147 321.223 343.52 327.189C320.893 333.154 300.203 321.61 300.203 321.61L297.076 328.867C297.076 328.867 320.07 342.204 344.342 341.793C368.615 341.382 377.833 320.418 370.345 307.245Z" fill="black"/>
</g>
<mask id="mask13_25_50" style="mask-type:luminance" maskUnits="userSpaceOnUse" x="217" y="278" width="91" height="58">
<path d="M307.067 303.724C307.067 303.724 287.809 280.872 257.63 278.841C227.45 276.809 213.295 299.444 217.906 316.275C222.518 333.105 253.935 345.1 292.781 326.044L284.545 304.667L307.067 303.724Z" fill="white"/>
</mask>
<g mask="url(#mask13_25_50)">
<path opacity="0.1" d="M217.187 307.245C217.187 307.245 221.384 321.223 244.012 327.189C266.638 333.154 287.328 321.61 287.328 321.61L290.456 328.867C290.456 328.867 267.462 342.204 243.19 341.793C218.916 341.382 209.698 320.418 217.187 307.245Z" fill="black"/>
</g>
<path d="M293.714 318.799L296.863 326.107L293.714 327.463" stroke="#130F40" stroke-width="0.336667" stroke-miterlimit="10" stroke-linecap="round" stroke-linejoin="round"/>
<path d="M293.714 312.474L296.838 311.548" stroke="#FF7979" stroke-width="0.336667" stroke-miterlimit="10" stroke-linecap="round" stroke-linejoin="round"/>
<path d="M326.728 304.305H260.7C259.381 304.305 258.295 303.265 258.239 301.947L256.259 255.911C256.198 254.51 257.318 253.341 258.721 253.341H328.708C330.111 253.341 331.23 254.51 331.17 255.911L329.19 301.947C329.133 303.265 328.048 304.305 326.728 304.305Z" fill="#7ED6DF"/>
<path d="M259.249 306.31H328.178C328.732 306.31 329.181 305.861 329.181 305.307C329.181 304.753 328.732 304.305 328.178 304.305H259.249C258.696 304.305 258.247 304.754 258.247 305.307C258.247 305.861 258.696 306.31 259.249 306.31Z" fill="#7ED6DF"/>
<path d="M313.307 304.305H274.121V306.311H313.307V304.305Z" fill="#130F40"/>
<path d="M274.121 304.305H260.7" stroke="#130F40" stroke-width="0.336667" stroke-miterlimit="10" stroke-linecap="round" stroke-linejoin="round"/>
<path d="M313.307 304.305H326.728" stroke="#130F40" stroke-width="0.336667" stroke-miterlimit="10" stroke-linecap="round" stroke-linejoin="round"/>
<path d="M290.963 271.029L288.638 278.742H293.289L289.626 286.457L298.79 276.429H292.702L295.325 271.029H290.963Z" fill="white"/>
<mask id="mask14_25_50" style="mask-type:luminance" maskUnits="userSpaceOnUse" x="256" y="253" width="76" height="52">
<path d="M326.728 304.305H260.7C259.381 304.305 258.295 303.265 258.239 301.947L256.259 255.911C256.198 254.51 257.318 253.341 258.721 253.341H328.708C330.111 253.341 331.23 254.51 331.17 255.911L329.19 301.947C329.133 303.265 328.048 304.305 326.728 304.305Z" fill="white"/>
</mask>
<g mask="url(#mask14_25_50)">
<path opacity="0.1" d="M282.391 304.305L329.745 289.025L329.182 308.007H282.391V304.305Z" fill="black"/>
</g>
<path opacity="0.1" d="M259.249 306.31C259.249 306.31 268.747 310.629 293.714 310.629C318.68 310.629 328.178 306.31 328.178 306.31H259.249Z" fill="black"/>
</g>
</g>
<defs>
<filter id="filter0_d_25_50" x="39.6714" y="8.34937" width="167.61" height="21.3193" filterUnits="userSpaceOnUse" color-interpolation-filters="sRGB">
<feFlood flood-opacity="0" result="BackgroundImageFix"/>
<feColorMatrix in="SourceAlpha" type="matrix" values="0 0 0 0 0 0 0 0 0 0 0 0 0 0 0 0 0 0 127 0" result="hardAlpha"/>
<feOffset/>
<feGaussianBlur stdDeviation="1.77"/>
<feColorMatrix type="matrix" values="0 0 0 0 0.403922 0 0 0 0 0.905882 0 0 0 0 0.545098 0 0 0 0.45 0"/>
<feBlend mode="normal" in2="BackgroundImageFix" result="effect1_dropShadow_25_50"/>
<feBlend mode="normal" in="SourceGraphic" in2="effect1_dropShadow_25_50" result="shape"/>
</filter>
<clipPath id="clip0_25_50">
<rect width="568" height="382" fill="white"/>
</clipPath>
<clipPath id="clip1_25_50">
<rect width="505" height="336.667" fill="white" transform="translate(32 25)"/>
</clipPath>
</defs>
</svg>
