<svg width="84" height="83" viewBox="0 0 84 83" fill="none" xmlns="http://www.w3.org/2000/svg">
<path d="M68.9473 0.216064H14.3686C6.59483 0.216064 0.292908 6.51798 0.292908 14.2918V68.8705C0.292908 76.6443 6.59483 82.9462 14.3686 82.9462H68.9473C76.7211 82.9462 83.0231 76.6443 83.0231 68.8705V14.2918C83.0231 6.51798 76.7211 0.216064 68.9473 0.216064Z" fill="#1A1C19"/>
<path d="M41.6001 10.8333C24.2619 10.8684 10.1812 25.0548 10.2666 42.393C10.337 56.3984 19.5867 68.2371 32.3051 72.2034C33.019 72.4246 33.7429 71.8867 33.7329 71.1377C33.7027 69.3883 33.6776 67.6389 33.6474 65.8895C33.6474 65.4521 33.2905 65.1203 32.8531 65.1505C32.094 65.2409 31.3349 65.3365 30.5759 65.427C28.6103 65.6482 27.0218 65.3465 26.1923 64.9745C26.0817 64.9243 25.9711 64.874 25.8656 64.8187C25.3277 64.5422 24.84 64.1853 24.3926 63.7781C24.3373 63.7278 24.277 63.6726 24.2167 63.6223C23.8497 63.3056 23.3821 62.8129 22.995 62.1091C22.7688 61.6969 22.618 61.2998 22.5175 60.9529C22.3466 60.3597 22.0651 59.8067 21.6931 59.3191C21.5523 59.1281 21.4116 58.9371 21.2809 58.736C20.7832 57.9618 20.1146 57.3083 19.3304 56.8307L19.1997 56.7503C18.8579 56.5442 18.5562 56.2828 18.3149 55.9661C18.0485 55.6192 17.9329 55.3025 18.0384 55.1064C18.1742 54.8551 18.6367 54.8702 19.5516 54.9003C20.2252 54.9204 20.6575 54.9355 21.1753 55.1416C21.5775 55.3025 21.8489 55.5237 22.3767 55.9661C23.1056 56.5743 23.7492 57.1122 24.3474 57.997C24.8401 58.7259 24.7345 58.8466 25.202 59.4046C25.7298 60.033 26.2827 60.3798 26.6346 60.591C27.7104 61.2445 28.6857 61.4254 28.937 61.4707C29.9123 61.6366 30.6462 61.5159 31.5511 61.3701C32.6972 61.1841 33.2754 61.0937 33.5971 60.7569C34.2858 60.043 33.758 59.2789 34.4567 58.0121C35.2259 56.6146 35.6683 56.7553 35.5276 56.4487C35.4119 56.2024 34.8992 56.2928 34.13 56.2476C33.5217 56.2124 32.9185 55.9158 31.6316 55.6745C31.0987 55.5739 29.1985 55.1818 27.3334 54.0357C27.0117 53.8396 25.9007 53.1358 24.7948 51.9042C24.7948 51.9042 23.7743 50.7681 22.5225 48.4657C22.5125 48.4456 22.5024 48.4255 22.5024 48.4255C22.4923 48.4104 22.4873 48.3903 22.4823 48.3752C21.9645 47.038 21.3915 45.1227 21.1904 42.7701C20.9943 40.4576 21.2306 38.5071 21.502 37.1197C21.688 36.2651 22.1003 34.9379 23.0755 33.5957C23.4928 33.0176 23.9352 32.5551 24.3373 32.1932C24.5133 32.0373 24.5786 31.791 24.5031 31.5698C24.2116 30.6851 23.915 29.4434 23.8949 27.9503C23.8748 26.397 24.1513 25.1 24.4429 24.17C24.5485 23.8282 24.8702 23.6069 25.2271 23.622C26.2074 23.6673 27.444 23.8332 28.8114 24.2756C31.0333 24.9995 32.6118 26.1506 33.5418 26.955C33.6071 27.0103 33.6977 27.0304 33.7832 27.0053C35.7186 26.392 38.6192 25.7234 42.1683 25.8189C45.0488 25.8993 47.4366 26.4573 49.1659 27.0053C49.2463 27.0304 49.3317 27.0103 49.3971 26.955C50.2366 26.1707 51.7247 24.9944 53.8863 24.2655C55.2085 23.8181 56.4149 23.6572 57.3499 23.622C57.8024 23.6019 58.0236 24.0845 58.1392 24.2153C58.1694 24.2454 58.1995 24.2806 58.2297 24.3258C58.9535 25.2759 58.9233 27.2968 58.9233 27.2968C58.8932 28.5033 58.8731 29.2272 58.6318 30.2125C58.4358 31.0118 58.1693 31.6703 58.4609 32.3892C58.6217 32.7813 58.8782 33.0126 59.0139 33.1433C60.8437 34.9128 61.5776 38.6127 61.7083 40.709C61.7083 40.7241 61.7083 40.7291 61.7083 40.7291C61.834 42.0763 62.0301 46.0779 59.4965 49.9035C57.7973 52.4672 55.6156 53.8346 54.7459 54.3272C53.5344 55.0159 52.1972 55.775 50.2819 56.0063C48.8693 56.1772 47.517 56.0214 47.3762 56.4989C47.2958 56.7754 47.7332 57.0016 48.2761 57.8512C48.6229 58.3941 48.7838 58.8265 49.005 59.4297C49.3368 60.3346 49.558 61.5762 49.4826 66.2815C49.4625 67.5534 49.4424 68.1868 49.4223 68.8303C49.3971 69.6748 49.367 70.4641 49.3318 71.193C49.3016 71.947 50.0256 72.5151 50.7495 72.2939C63.6589 68.398 73.0594 56.4135 73.0594 42.2372C73.0594 24.8788 58.9736 10.8131 41.6052 10.8433L41.6001 10.8333Z" fill="white"/>
</svg>
