<svg width="84" height="84" viewBox="0 0 84 84" fill="none" xmlns="http://www.w3.org/2000/svg">
<path d="M69.5938 0H14.5829C6.80906 0 0.507141 6.30192 0.507141 14.0757V69.0867C0.507141 76.8605 6.80906 83.1624 14.5829 83.1624H69.5938C77.3677 83.1624 83.6696 76.8605 83.6696 69.0867V14.0757C83.6696 6.30192 77.3677 0 69.5938 0Z" fill="#2967B0"/>
<path d="M44.6748 37.0744C45.2529 36.4259 45.7254 35.7724 46.3186 35.2144C48.1384 33.5001 50.29 32.6355 52.7985 32.6556C54.1759 32.6657 55.5432 32.7662 56.8754 33.1533C59.9168 34.033 61.6863 36.1293 62.5308 39.1003C63.1642 41.3273 63.2799 43.6196 63.2849 45.917C63.2949 50.758 63.2698 55.6041 63.2849 60.4451C63.2849 60.8976 63.1592 61.0182 62.7118 61.0132C60.2184 60.9931 57.72 60.9931 55.2265 61.0132C54.7892 61.0132 54.6937 60.8825 54.6937 60.4652C54.7088 55.8554 54.7088 51.2456 54.6937 46.6409C54.6937 45.4846 54.6183 44.3334 54.2915 43.2074C53.6933 41.1413 52.2153 40.0856 50.0487 40.2012C47.0878 40.3571 45.5495 41.8249 45.1724 44.8311C45.082 45.55 45.0417 46.2688 45.0417 46.9927C45.0417 51.4769 45.0417 55.956 45.0518 60.4401C45.0518 60.8875 44.9412 61.0182 44.4837 61.0132C41.9702 60.9931 39.4567 60.9931 36.9432 61.0132C36.541 61.0132 36.4254 60.9076 36.4254 60.5004C36.4354 51.6277 36.4354 42.755 36.4254 33.8772C36.4254 33.4398 36.5712 33.3343 36.9834 33.3393C39.3712 33.3594 41.7591 33.3594 44.1419 33.3393C44.5793 33.3393 44.6949 33.475 44.6848 33.8923C44.6597 34.953 44.6748 36.0137 44.6748 37.0744Z" fill="#FDFDFD"/>
<path d="M31.0062 47.2141C31.0062 51.6027 31.0012 55.9964 31.0163 60.385C31.0163 60.8726 30.8956 61.0184 30.3929 61.0133C27.8995 60.9882 25.4061 60.9932 22.9127 61.0133C22.5105 61.0133 22.3949 60.9178 22.3949 60.5006C22.405 51.6128 22.405 42.7249 22.3949 33.8371C22.3949 33.1685 22.6915 33.2842 24.5616 33.5606C26.1803 33.8019 27.8342 33.7768 29.4428 33.4752C30.8705 33.2088 31.0163 33.3244 31.0163 33.9427C31.0062 38.3665 31.0062 42.7953 31.0062 47.2191V47.2141Z" fill="#FDFDFD"/>
<path d="M31.6949 24.5319C31.6949 28.4328 27.2209 31.3083 23.149 28.2569C19.8663 24.2051 22.792 19.5752 26.7182 19.5752C29.4428 19.5752 31.6899 21.8173 31.6899 24.5319H31.6949Z" fill="#FDFDFD"/>
</svg>
