<svg width="275" height="63" viewBox="0 0 275 63" fill="none" xmlns="http://www.w3.org/2000/svg">
<g id="OBJECTS_2" clip-path="url(#clip0_121_7)">
<g id="Group" opacity="0.1">
<path id="Vector" d="M274.16 53.5V16.85L261.35 5.64004H161.61L154.29 0.0400391H15.1L0 15.2V49.31L7.17 57.45H112.07L121.53 62.71H266.54L274.16 53.5Z" fill="#75EBFF"/>
</g>
<path id="Vector_2" d="M157.64 0.04L162.99 3.51H259.38L256.13 0L157.64 0.04Z" fill="#67E78B"/>
<path id="Vector_3" d="M154.06 0.820039L161.19 6.27004L161.38 6.41004H261.1L273.45 17.22V53.2L266.22 61.93H121.7L112.4 56.75L112.24 56.66H7.48L0.72 48.99V15.54L15.38 0.820039H154.06ZM154.29 0.0400391H15.1L0 15.2V49.31L7.17 57.45H112.07L121.52 62.71H266.53L274.16 53.5V16.85L261.35 5.64004H161.6L154.29 0.0400391Z" fill="#67E78B"/>
<g id="Group_2">
<path id="Vector_4" d="M23.23 58.98H111.87L118.98 62.71H26.89L23.23 58.98Z" fill="#67E78B"/>
<path id="Vector_5" d="M25.26 62.71H21.81L18.3 58.98H21.75L25.26 62.71Z" fill="#67E78B"/>
<path id="Vector_6" d="M20.41 62.71H16.95L13.44 58.98H16.9L20.41 62.71Z" fill="#67E78B"/>
</g>
<path id="Vector_7" d="M7.51 0.0400391H13.37L0 13.45V7.42004L7.51 0.0400391Z" fill="#67E78B"/>
<path id="Vector_8" opacity="0.1" d="M273.86 24.0901L269.13 29.1901V59.0901L274.24 53.5801L273.86 24.0901Z" fill="#67E78B"/>
<path id="Vector_9" d="M273.45 45.05L257.29 62.4901H266.54L274.16 53.5L273.45 45.05Z" fill="#67E78B"/>
<path id="Vector_10" opacity="0.1" d="M0 49.3101H69.99L77.27 57.1601H7.17L0 49.3101Z" fill="#67E78B"/>
<path id="Link" d="M110.368 40V22.696H113.248V37.096H127.648V40H110.368ZM128.951 40V26.08H131.807V40H128.951ZM128.951 24.4V21.52H131.807V24.4H128.951ZM134.577 40V26.08H145.521C146.097 26.08 146.625 26.232 147.105 26.536C147.601 26.824 147.993 27.208 148.281 27.688C148.569 28.168 148.713 28.704 148.713 29.296V40H145.857V29.392C145.857 29.264 145.809 29.16 145.713 29.08C145.633 28.984 145.537 28.936 145.425 28.936H137.889C137.777 28.936 137.673 28.984 137.577 29.08C137.481 29.16 137.433 29.264 137.433 29.392V40H134.577ZM151.288 40V21.52H154.144V31.6H156.952L162.04 26.08H165.208V26.752L159.496 33.04L165.208 39.328V40H162.04L156.952 34.48H154.144V40H151.288Z" fill="white"/>
</g>
<defs>
<clipPath id="clip0_121_7">
<rect width="274.24" height="62.71" fill="white"/>
</clipPath>
</defs>
</svg>
