<svg width="277" height="34" viewBox="0 0 277 34" fill="none" xmlns="http://www.w3.org/2000/svg">
<g filter="url(#filter0_d_150_58)">
<path d="M130.982 6.5L120.803 27.5H111.211L121.39 6.5H130.982ZM107.489 6.5L97.3103 27.5H106.903L117.082 6.5H107.489ZM93.5885 6.5L83.4096 27.5H93.002L103.181 6.5H93.5885ZM135.291 6.5L125.112 27.5H134.704L144.883 6.5H135.291ZM149.191 6.5L139.012 27.5H148.605L158.784 6.5H149.191ZM79.6824 6.5L69.5035 27.5H79.0959L89.2748 6.5H79.6824ZM65.7817 6.5L55.6028 27.5H65.1952L75.3741 6.5H65.7817ZM51.881 6.5L41.7021 27.5H51.2945L61.4734 6.5H51.881ZM37.9803 6.5L27.8014 27.5H37.3938L47.5727 6.5H37.9803ZM24.0796 6.5L13.9007 27.5H23.4931L33.672 6.5H24.0796ZM10.1736 6.5L0 27.5H9.59239L19.7713 6.5H10.1789H10.1736ZM176.998 6.5L166.819 27.5H176.412L186.59 6.5H176.998ZM246.507 6.5L236.328 27.5H245.92L256.099 6.5H246.507ZM260.408 6.5L250.229 27.5H259.821L270 6.5H260.408ZM163.092 6.5L152.913 27.5H162.505L172.684 6.5H163.092ZM204.799 6.5L194.621 27.5H204.213L214.392 6.5H204.799ZM190.899 6.5L180.72 27.5H190.312L200.491 6.5H190.899ZM232.601 6.5L222.422 27.5H232.014L242.193 6.5H232.601ZM218.7 6.5L208.521 27.5H218.114L228.293 6.5H218.7Z" fill="url(#paint0_linear_150_58)"/>
</g>
<defs>
<filter id="filter0_d_150_58" x="-6.27" y="0.23" width="282.54" height="33.54" filterUnits="userSpaceOnUse" color-interpolation-filters="sRGB">
<feFlood flood-opacity="0" result="BackgroundImageFix"/>
<feColorMatrix in="SourceAlpha" type="matrix" values="0 0 0 0 0 0 0 0 0 0 0 0 0 0 0 0 0 0 127 0" result="hardAlpha"/>
<feOffset/>
<feGaussianBlur stdDeviation="3.135"/>
<feColorMatrix type="matrix" values="0 0 0 0 0.403922 0 0 0 0 0.905882 0 0 0 0 0.545098 0 0 0 0.45 0"/>
<feBlend mode="normal" in2="BackgroundImageFix" result="effect1_dropShadow_150_58"/>
<feBlend mode="normal" in="SourceGraphic" in2="effect1_dropShadow_150_58" result="shape"/>
</filter>
<linearGradient id="paint0_linear_150_58" x1="134.997" y1="27.5" x2="134.997" y2="6.5" gradientUnits="userSpaceOnUse">
<stop stop-color="#8EFFB9"/>
<stop offset="0.33" stop-color="#82F7AB"/>
<stop offset="0.9" stop-color="#67E78B"/>
</linearGradient>
</defs>
</svg>
