<svg width="166" height="48" viewBox="0 0 166 48" fill="none" xmlns="http://www.w3.org/2000/svg">
<path d="M12.3892 6.71427e-05C12.1673 0.0021852 11.9369 0.0557313 11.727 0.172081C11.0604 0.541567 10.8159 1.39816 11.1851 2.06422L12.6903 4.78203C9.06409 7.0257 6.6612 10.858 6.6612 15.2318C6.6612 15.2502 6.66115 15.2778 6.6612 15.3049C6.66122 15.3145 6.66111 15.32 6.6612 15.3307C6.66121 15.345 6.6612 15.3659 6.6612 15.3694V16.0446C5.96477 15.2433 4.94102 14.7373 3.79719 14.7373C1.70164 14.7373 0 16.4389 0 18.5345V30.2314C0 32.3269 1.70164 34.0285 3.79719 34.0285C4.94102 34.0285 5.96477 33.5225 6.6612 32.7212V34.3597C6.6612 36.5686 8.46875 38.3762 10.6777 38.3762H11.6969V43.5796C11.6969 45.6751 13.3985 47.3768 15.4941 47.3768C17.5896 47.3768 19.2913 45.6751 19.2913 43.5796V38.3762H21.0544V43.5796C21.0544 45.6751 22.756 47.3768 24.8516 47.3768C26.9471 47.3768 28.6488 45.6751 28.6488 43.5796V38.3762H29.6679C31.8769 38.3762 33.6844 36.5686 33.6844 34.3597V32.7212C34.3809 33.5225 35.4046 34.0285 36.5485 34.0285C38.644 34.0285 40.3457 32.3269 40.3457 30.2314V18.5345C40.3457 16.4389 38.644 14.7373 36.5485 14.7373C35.4046 14.7373 34.3809 15.2433 33.6844 16.0446V15.3823V15.3694C33.6845 15.3487 33.6845 15.3282 33.6844 15.3307C33.6847 15.2895 33.6844 15.2567 33.6844 15.2318C33.6844 10.8587 31.2762 7.03016 27.6511 4.78633L29.1605 2.06422C29.5297 1.39816 29.2852 0.541563 28.6187 0.172076C28.4088 0.0557272 28.1784 0.00218385 27.9564 6.30731e-05C27.4642 -0.00464825 26.981 0.25477 26.7265 0.713918L25.1483 3.56504C23.6051 2.99556 21.926 2.68347 20.1728 2.68347C18.4214 2.68347 16.7393 2.99236 15.1973 3.56073L13.6191 0.713918C13.3646 0.254769 12.8815 -0.00463331 12.3892 6.71427e-05Z" fill="white"/>
<path d="M3.79728 15.7263C2.23349 15.7263 0.989166 16.9706 0.989166 18.5344V30.2313C0.989166 31.7951 2.23349 33.0394 3.79728 33.0394C5.36107 33.0394 6.60539 31.7951 6.60539 30.2313V18.5344C6.60539 16.9706 5.36107 15.7263 3.79728 15.7263ZM36.5486 15.7263C34.9848 15.7263 33.7404 16.9706 33.7404 18.5344V30.2313C33.7404 31.7951 34.9848 33.0394 36.5486 33.0394C38.1124 33.0394 39.3567 31.7951 39.3567 30.2313V18.5344C39.3567 16.9706 38.1124 15.7263 36.5486 15.7263Z" fill="#A4C639"/>
<path d="M15.4941 29.0746C13.9303 29.0746 12.686 30.3189 12.686 31.8827V43.5796C12.686 45.1434 13.9303 46.3877 15.4941 46.3877C17.0579 46.3877 18.3022 45.1434 18.3022 43.5796V31.8827C18.3022 30.3189 17.0579 29.0746 15.4941 29.0746ZM24.8516 29.0746C23.2878 29.0746 22.0435 30.3189 22.0435 31.8827V43.5796C22.0435 45.1434 23.2878 46.3877 24.8516 46.3877C26.4154 46.3877 27.6597 45.1434 27.6597 43.5796V31.8827C27.6597 30.3189 26.4154 29.0746 24.8516 29.0746Z" fill="#A4C639"/>
<path d="M12.3978 0.989155C12.3314 0.989834 12.2696 1.00696 12.2086 1.04076C12.0084 1.15175 11.9425 1.38185 12.0538 1.5826L14.032 5.15617C10.2261 7.13647 7.65542 10.8998 7.65027 15.2189H32.6954C32.6902 10.8998 30.1196 7.13647 26.3137 5.15617L28.2918 1.5826C28.4031 1.38185 28.3373 1.15175 28.137 1.04076C28.076 1.00696 28.0142 0.989788 27.9478 0.989155C27.8057 0.987784 27.671 1.05879 27.5952 1.19557L25.5912 4.80785C23.9519 4.0807 22.1132 3.67256 20.1728 3.67256C18.2325 3.67256 16.3937 4.0807 14.7544 4.80785L12.7505 1.19557C12.6746 1.05879 12.5399 0.987792 12.3978 0.989155ZM7.65027 16.208V34.3597C7.65027 36.0369 9.0005 37.3871 10.6777 37.3871H29.6679C31.3451 37.3871 32.6954 36.0369 32.6954 34.3597V16.208H7.65027Z" fill="#A4C639"/>
<path d="M14.3932 8.5448C13.8214 8.5448 13.3482 9.01805 13.3482 9.58978C13.3482 10.1615 13.8214 10.6348 14.3932 10.6348C14.9649 10.6348 15.4381 10.1615 15.4381 9.58978C15.4381 9.01805 14.9649 8.5448 14.3932 8.5448ZM25.9524 8.5448C25.3807 8.5448 24.9074 9.01805 24.9074 9.58978C24.9074 10.1615 25.3807 10.6348 25.9524 10.6348C26.5242 10.6348 26.9974 10.1615 26.9974 9.58978C26.9974 9.01805 26.5242 8.5448 25.9524 8.5448Z" fill="white"/>
<path d="M76.9309 3.33314L99.1519 0V19.7767H76.9309V3.33314Z" fill="#90C300"/>
<path d="M56.9321 6.22192L73.9681 3.70349V19.9989H56.9321V6.22192Z" fill="#F8672C"/>
<path d="M76.9309 38.8867L99.1519 42.2199V22.9617H76.9309V38.8867Z" fill="#FFC400"/>
<path d="M56.9321 35.998L73.9681 38.5164V22.9617H56.9321V35.998Z" fill="#00B4F2"/>
<path d="M122.071 41.5111C121.343 41.1513 120.672 40.1853 120.667 39.4901C120.667 39.198 120.64 39.1777 120.199 39.1117C119.943 39.0734 119.57 38.9592 119.372 38.858C118.624 38.4773 118.003 37.4488 118.003 36.5905C118.003 36.2219 118.003 36.2213 117.455 36.1079C116.778 35.9675 116.286 35.5612 115.968 34.8799L115.738 34.3873V18.104C115.738 4.75616 115.766 1.75408 115.874 1.45147C116.075 0.887577 116.465 0.442404 116.959 0.210433L117.406 0.000438899H138.06C160.527 0.000438899 159.074 -0.0346092 159.68 0.521683C159.979 0.795879 160.381 1.63801 160.382 1.9928C160.382 2.25065 160.406 2.26338 160.861 2.26338C162.094 2.26338 163.074 3.0997 163.34 4.37894L163.447 4.8957L163.933 4.94229C164.746 5.02021 165.55 5.6983 165.861 6.56767C165.969 6.87025 165.993 9.88347 165.997 23.2764C166.004 41.379 166.048 40.1018 165.358 40.9066C165.173 41.1227 164.821 41.3935 164.576 41.5083L164.131 41.7172L143.308 41.7172L122.485 41.7171L122.068 41.5111L122.071 41.5111ZM164.523 40.6718C164.692 40.5297 164.917 40.2437 165.023 40.0362C165.212 39.6662 165.216 39.3427 165.216 23.3193C165.216 9.81845 165.193 6.92444 165.083 6.66157C164.928 6.29121 164.3 5.70759 164.055 5.70564C163.962 5.70493 163.786 5.67782 163.665 5.64542L163.445 5.58658L163.419 21.3714L163.392 37.1562L163.096 37.7353C162.734 38.4411 162.163 38.9032 161.47 39.0517C161.116 39.1274 155.105 39.1592 141.153 39.1592H121.339L121.406 39.4789C121.51 39.9689 121.854 40.5213 122.187 40.7345C122.483 40.9238 122.819 40.9269 143.351 40.9285L164.215 40.9299L164.523 40.6718ZM161.609 38.2349C161.979 38.0802 162.374 37.6012 162.541 37.1029C162.696 36.6413 162.701 4.84848 162.548 4.29249C162.49 4.08272 162.274 3.73096 162.068 3.51081C161.716 3.13409 161.656 3.10811 161.041 3.06906L160.389 3.02757V18.7352C160.389 36.0786 160.436 34.8073 159.768 35.5026C159.594 35.683 159.319 35.9044 159.157 35.9945C158.884 36.1455 157.298 36.1603 138.777 36.1843L118.694 36.2103L118.753 36.627C118.848 37.297 119.198 37.9007 119.637 38.1491L120.026 38.3688L140.654 38.3702C158.072 38.3717 161.333 38.3505 161.611 38.2347L161.609 38.2349ZM140.02 30.1508C141.806 29.839 143.4 29.1987 144.917 28.1833C150.215 24.6384 152.067 17.5083 149.142 11.9181C147.314 8.42467 144.181 6.06526 140.279 5.24383C139.105 4.99674 136.513 4.99815 135.351 5.2467C132.879 5.7751 130.726 6.91401 129.012 8.60102C127.197 10.3869 126.139 12.2377 125.496 14.753C125.069 16.4215 125.067 18.8383 125.489 20.6183C126.608 25.3225 130.435 29.0557 135.152 30.045C136.245 30.2742 136.269 30.2764 137.764 30.2906C138.629 30.2988 139.471 30.2467 140.019 30.151L140.02 30.1508ZM136.386 28.0998C135.801 27.9143 135.078 27.5246 134.427 27.0428C133.881 26.639 132.852 25.466 132.465 24.808L132.291 24.51L133.205 24.2181C134.353 23.8514 135.368 23.6414 136.41 23.5547L137.224 23.487V25.8625V28.238L137.002 28.2315C136.88 28.2279 136.603 28.1686 136.386 28.0998ZM138.406 25.9354C138.406 23.8956 138.426 23.6001 138.564 23.5474C138.788 23.4613 140.55 23.6898 141.443 23.921C142.388 24.1657 143.335 24.5031 143.335 24.5954C143.335 24.6338 143.117 24.9709 142.852 25.3447C141.749 26.8972 140.221 27.9734 138.8 28.2004L138.406 28.2632V25.9354ZM132.254 27.1976C131.616 26.8137 130.635 26.0827 130.436 25.8433C130.329 25.7146 130.37 25.6521 130.713 25.4256C130.935 25.279 131.131 25.1767 131.148 25.1981C131.165 25.2196 131.34 25.4836 131.538 25.7847C131.735 26.0859 132.119 26.5866 132.391 26.8974C133.076 27.678 133.071 27.6892 132.254 27.1976ZM143.274 26.9192C143.587 26.5499 143.997 26.0093 144.184 25.7178C144.371 25.4264 144.556 25.188 144.596 25.188C144.636 25.188 144.842 25.3055 145.054 25.4492L145.439 25.7104L145.151 25.9483C144.46 26.5182 143.836 26.9593 143.29 27.2638L142.703 27.5908L143.274 26.9192ZM128.963 24.2214C127.82 22.6828 126.979 20.5107 126.86 18.7927L126.829 18.3499H128.058H129.288L129.411 19.4814C129.553 20.7756 129.919 22.3353 130.334 23.4109C130.491 23.8176 130.62 24.1783 130.62 24.2125C130.62 24.2467 130.376 24.4362 130.078 24.6337L129.536 24.9929L128.963 24.2214ZM145.574 24.6547C145.315 24.4755 145.082 24.3083 145.057 24.2831C145.031 24.2579 145.127 23.953 145.269 23.6057C145.784 22.3455 146.164 20.6763 146.347 18.8665L146.405 18.3007H147.641H148.877L148.81 18.8665C148.638 20.3292 148.1 21.9822 147.416 23.1557C147.046 23.7895 146.18 24.9884 146.095 24.9833C146.068 24.9819 145.833 24.8338 145.574 24.6547ZM131.573 22.9903C131.16 21.9583 130.808 20.394 130.669 18.9648L130.604 18.3007H133.914H137.224V20.4161C137.224 22.3648 137.21 22.5315 137.051 22.5322C136.048 22.5373 133.936 22.9304 132.792 23.3256C132.333 23.4841 131.928 23.6137 131.891 23.6137C131.854 23.6137 131.711 23.3332 131.573 22.9903ZM143.237 23.4572C142.356 23.0758 141.073 22.7989 139.047 22.5529L138.456 22.481V20.4155V18.3499L141.748 18.324L145.04 18.298L144.976 19.1111C144.868 20.5054 144.505 22.0528 144.023 23.1748C143.817 23.654 143.749 23.6786 143.237 23.4572ZM126.842 17.0492C126.751 16.9028 127.071 15.0989 127.327 14.316C127.468 13.8831 127.752 13.1909 127.957 12.7778C128.432 11.8215 129.392 10.4296 129.577 10.4296C129.719 10.4296 130.616 11.0801 130.618 11.184C130.618 11.2471 130.526 11.5128 130.411 11.7743C129.918 12.8994 129.399 15.1976 129.315 16.6281L129.289 17.0709L128.089 17.0985C127.43 17.1137 126.868 17.0912 126.842 17.0492ZM130.666 16.4068C130.753 15.4713 130.977 14.2435 131.204 13.4651C131.364 12.9156 131.775 11.8015 131.844 11.7331C131.857 11.7195 132.242 11.8366 132.698 11.9933C133.78 12.365 134.789 12.5825 136.106 12.7282L137.174 12.8463L137.201 14.9832L137.227 17.1201H133.914H130.6L130.666 16.4068ZM138.45 16.9944C138.424 16.9253 138.414 15.9624 138.429 14.8545L138.455 12.8402L139.293 12.766C140.765 12.6359 142.379 12.2623 143.65 11.7579C143.778 11.707 143.855 11.7797 143.977 12.069C144.507 13.3186 145.01 15.5245 145.01 16.5961V17.1201H141.754C139.204 17.1201 138.488 17.0928 138.45 16.9944ZM146.345 16.4068C146.2 14.8104 145.816 13.1419 145.287 11.8097C145.119 11.387 145.037 11.0602 145.095 11.0411C145.15 11.0228 145.375 10.8777 145.594 10.7187C145.814 10.5597 146.039 10.4296 146.093 10.4296C146.254 10.4296 147.24 11.8261 147.666 12.658C148.319 13.9354 148.854 15.7931 148.854 16.7866V17.1201H147.632H146.41L146.345 16.4068ZM138.452 11.8197C138.353 11.7208 138.408 7.19337 138.509 7.13108C138.683 7.02377 139.901 7.44906 140.547 7.84255C140.884 8.04789 141.394 8.41977 141.681 8.66894C142.292 9.20042 143.403 10.6988 143.275 10.8179C143.126 10.9566 141.749 11.3903 140.92 11.56C140.08 11.7319 138.527 11.8952 138.452 11.8197ZM135.499 11.6967C134.574 11.5309 133.627 11.2874 132.967 11.0462L132.308 10.8052L132.596 10.3375C132.993 9.69469 133.995 8.62143 134.65 8.13831C135.234 7.70773 136.254 7.24611 136.854 7.14051L137.224 7.0755V9.4413V11.8071L136.608 11.7961C136.269 11.7903 135.77 11.7453 135.499 11.6967ZM144.281 9.79853C144.139 9.55552 143.756 9.02255 143.431 8.61412C143.105 8.2057 142.862 7.87153 142.889 7.87153C143.045 7.87153 144.418 8.7807 144.875 9.18697C145.465 9.71221 145.471 9.64367 144.8 10.0739L144.541 10.2404L144.281 9.79853ZM130.646 9.90698C130.47 9.78859 130.326 9.66233 130.325 9.6264C130.325 9.45673 132.579 7.87153 132.824 7.87153C132.868 7.87153 132.7 8.09948 132.449 8.37808C132.198 8.65667 131.807 9.16582 131.581 9.50953C131.355 9.85324 131.123 10.1317 131.067 10.1284C131.011 10.1248 130.821 10.0254 130.646 9.90698Z" fill="#00BCF2"/>
</svg>
