<svg width="275" height="63" viewBox="0 0 275 63" fill="none" xmlns="http://www.w3.org/2000/svg">
<g id="OBJECTS_2" clip-path="url(#clip0_25_144)">
<g id="Group" opacity="0.1">
<path id="Vector" d="M274.16 53.5V16.85L261.35 5.64001H161.61L154.29 0.0400085H15.1L0 15.2V49.31L7.17 57.45H112.07L121.53 62.71H266.54L274.16 53.5Z" fill="#67E78B"/>
</g>
<path id="Vector_2" d="M157.64 0.04L162.99 3.51H259.38L256.13 0L157.64 0.04Z" fill="#67E78B"/>
<path id="Vector_3" d="M154.06 0.820009L161.19 6.27001L161.38 6.41001H261.1L273.45 17.22V53.2L266.22 61.93H121.7L112.4 56.75L112.24 56.66H7.48L0.72 48.99V15.54L15.38 0.820009H154.06ZM154.29 0.0400085H15.1L0 15.2V49.31L7.17 57.45H112.07L121.52 62.71H266.53L274.16 53.5V16.85L261.35 5.64001H161.6L154.29 0.0400085Z" fill="#67E78B"/>
<g id="Group_2">
<path id="Vector_4" d="M23.23 58.98H111.87L118.98 62.71H26.89L23.23 58.98Z" fill="#67E78B"/>
<path id="Vector_5" d="M25.26 62.71H21.81L18.3 58.98H21.75L25.26 62.71Z" fill="#67E78B"/>
<path id="Vector_6" d="M20.41 62.71H16.95L13.44 58.98H16.9L20.41 62.71Z" fill="#67E78B"/>
</g>
<path id="Vector_7" d="M7.51 0.0400085H13.37L0 13.45V7.42001L7.51 0.0400085Z" fill="#67E78B"/>
<path id="Vector_8" opacity="0.1" d="M273.86 24.09L269.13 29.19V59.09L274.24 53.58L273.86 24.09Z" fill="#67E78B"/>
<path id="Vector_9" d="M273.45 45.05L257.29 62.49H266.54L274.16 53.5L273.45 45.05Z" fill="#67E78B"/>
<path id="Vector_10" opacity="0.1" d="M0 49.31H69.99L77.27 57.16H7.17L0 49.31Z" fill="#67E78B"/>
<path id="Projects" d="M82.344 40V22.744H96.744C97.272 22.744 97.752 22.88 98.184 23.152C98.632 23.408 98.984 23.752 99.24 24.184C99.496 24.616 99.624 25.096 99.624 25.624V30.688C99.624 31.216 99.496 31.696 99.24 32.128C98.984 32.56 98.632 32.912 98.184 33.184C97.752 33.44 97.272 33.568 96.744 33.568H84.288V40H82.344ZM85.224 31.6H96.744C97 31.6 97.216 31.512 97.392 31.336C97.584 31.16 97.68 30.944 97.68 30.688V25.624C97.68 25.368 97.584 25.152 97.392 24.976C97.216 24.784 97 24.688 96.744 24.688H85.224C84.968 24.688 84.744 24.784 84.552 24.976C84.376 25.152 84.288 25.368 84.288 25.624V30.688C84.288 30.944 84.376 31.16 84.552 31.336C84.744 31.512 84.968 31.6 85.224 31.6ZM101.232 40V28.984C101.232 28.456 101.36 27.976 101.616 27.544C101.888 27.096 102.24 26.744 102.672 26.488C103.12 26.216 103.608 26.08 104.136 26.08H111.96V28.048H104.136C103.88 28.048 103.656 28.144 103.464 28.336C103.288 28.512 103.2 28.728 103.2 28.984V40H101.232ZM116.276 40C115.748 40 115.26 39.872 114.812 39.616C114.38 39.344 114.028 38.992 113.756 38.56C113.5 38.112 113.372 37.624 113.372 37.096V28.984C113.372 28.456 113.5 27.976 113.756 27.544C114.028 27.096 114.38 26.744 114.812 26.488C115.26 26.216 115.748 26.08 116.276 26.08H124.628C125.172 26.08 125.66 26.216 126.092 26.488C126.54 26.744 126.892 27.096 127.148 27.544C127.42 27.976 127.556 28.456 127.556 28.984V37.096C127.556 37.624 127.42 38.112 127.148 38.56C126.892 38.992 126.54 39.344 126.092 39.616C125.66 39.872 125.172 40 124.628 40H116.276ZM116.276 38.032H124.628C124.884 38.032 125.1 37.944 125.276 37.768C125.468 37.576 125.564 37.352 125.564 37.096V28.984C125.564 28.728 125.468 28.512 125.276 28.336C125.1 28.144 124.884 28.048 124.628 28.048H116.276C116.02 28.048 115.796 28.144 115.604 28.336C115.428 28.512 115.34 28.728 115.34 28.984V37.096C115.34 37.352 115.428 37.576 115.604 37.768C115.796 37.944 116.02 38.032 116.276 38.032ZM124.278 45.832V43.84H130.158C130.414 43.84 130.63 43.744 130.806 43.552C130.998 43.376 131.094 43.16 131.094 42.904V26.08H133.086V42.904C133.086 43.448 132.95 43.936 132.678 44.368C132.422 44.816 132.07 45.168 131.622 45.424C131.19 45.696 130.702 45.832 130.158 45.832H124.278ZM131.094 23.488V21.52H133.086V23.488H131.094ZM138.167 40C137.639 40 137.151 39.872 136.703 39.616C136.271 39.344 135.919 38.992 135.647 38.56C135.391 38.112 135.263 37.624 135.263 37.096V28.984C135.263 28.456 135.391 27.976 135.647 27.544C135.919 27.096 136.271 26.744 136.703 26.488C137.151 26.216 137.639 26.08 138.167 26.08H146.519C147.063 26.08 147.551 26.216 147.983 26.488C148.431 26.744 148.783 27.096 149.039 27.544C149.311 27.976 149.447 28.456 149.447 28.984V34.024H137.231V37.096C137.231 37.352 137.319 37.576 137.495 37.768C137.687 37.944 137.911 38.032 138.167 38.032H149.447V40H138.167ZM137.231 32.056H147.455V28.984C147.455 28.728 147.359 28.512 147.167 28.336C146.991 28.144 146.775 28.048 146.519 28.048H138.167C137.911 28.048 137.687 28.144 137.495 28.336C137.319 28.512 137.231 28.728 137.231 28.984V32.056ZM154.316 40C153.788 40 153.3 39.872 152.852 39.616C152.42 39.344 152.068 38.992 151.796 38.56C151.54 38.112 151.412 37.624 151.412 37.096V28.984C151.412 28.456 151.54 27.976 151.796 27.544C152.068 27.096 152.42 26.744 152.852 26.488C153.3 26.216 153.788 26.08 154.316 26.08H165.548V28.048H154.316C154.06 28.048 153.836 28.144 153.644 28.336C153.468 28.512 153.38 28.728 153.38 28.984V37.096C153.38 37.352 153.468 37.576 153.644 37.768C153.836 37.944 154.06 38.032 154.316 38.032H165.596V40H154.316ZM170.442 40C169.898 40 169.402 39.872 168.954 39.616C168.522 39.344 168.178 38.992 167.922 38.56C167.666 38.112 167.538 37.624 167.538 37.096V21.52H169.506V26.08H175.53V28.048H169.506V37.096C169.506 37.352 169.594 37.576 169.77 37.768C169.962 37.944 170.186 38.032 170.442 38.032H175.53V40H170.442ZM180.165 40C179.637 40 179.149 39.872 178.701 39.616C178.269 39.344 177.917 38.992 177.645 38.56C177.389 38.112 177.261 37.624 177.261 37.096V36.904H179.229V37.096C179.229 37.352 179.317 37.576 179.493 37.768C179.685 37.944 179.909 38.032 180.165 38.032H188.517C188.773 38.032 188.989 37.944 189.165 37.768C189.357 37.576 189.453 37.352 189.453 37.096V34.96C189.453 34.704 189.357 34.488 189.165 34.312C188.989 34.12 188.773 34.024 188.517 34.024H180.165C179.637 34.024 179.149 33.896 178.701 33.64C178.269 33.368 177.917 33.016 177.645 32.584C177.389 32.136 177.261 31.648 177.261 31.12V28.984C177.261 28.456 177.389 27.976 177.645 27.544C177.917 27.096 178.269 26.744 178.701 26.488C179.149 26.216 179.637 26.08 180.165 26.08H188.517C189.061 26.08 189.549 26.216 189.981 26.488C190.429 26.744 190.781 27.096 191.037 27.544C191.309 27.976 191.445 28.456 191.445 28.984V29.176H189.453V28.984C189.453 28.728 189.357 28.512 189.165 28.336C188.989 28.144 188.773 28.048 188.517 28.048H180.165C179.909 28.048 179.685 28.144 179.493 28.336C179.317 28.512 179.229 28.728 179.229 28.984V31.12C179.229 31.376 179.317 31.6 179.493 31.792C179.685 31.968 179.909 32.056 180.165 32.056H188.517C189.061 32.056 189.549 32.192 189.981 32.464C190.429 32.72 190.781 33.072 191.037 33.52C191.309 33.952 191.445 34.432 191.445 34.96V37.096C191.445 37.624 191.309 38.112 191.037 38.56C190.781 38.992 190.429 39.344 189.981 39.616C189.549 39.872 189.061 40 188.517 40H180.165Z" fill="white"/>
</g>
<defs>
<clipPath id="clip0_25_144">
<rect width="274.24" height="62.71" fill="white"/>
</clipPath>
</defs>
</svg>
