<svg width="593" height="45" viewBox="0 0 593 45" fill="none" xmlns="http://www.w3.org/2000/svg">
<path d="M12.8509 4.99878L3.05176e-05 4.99878L2.74576e-05 40.0012L12.8509 40.0012L12.8509 4.99878Z" fill="#67E78B"/>
<path opacity="0.6" d="M35.7309 4.99878L22.8801 4.99878L22.8801 40.0012L35.7309 40.0012L35.7309 4.99878Z" fill="#67E78B"/>
<path opacity="0.3" d="M58.611 4.99878L45.7602 4.99878L45.7602 40.0012L58.611 40.0012L58.611 4.99878Z" fill="#67E78B"/>
<path opacity="0.15" d="M81.5039 4.99878L68.6532 4.99878L68.6531 40.0012L81.5039 40.0012L81.5039 4.99878Z" fill="#67E78B"/>
<path d="M188.236 36C187.348 36 186.532 35.784 185.788 35.352C185.068 34.92 184.492 34.332 184.06 33.588C183.628 32.844 183.412 32.028 183.412 31.14V29.412H187.732V30.996C187.732 31.188 187.792 31.344 187.912 31.464C188.032 31.584 188.188 31.644 188.38 31.644H204.292C204.484 31.644 204.64 31.584 204.76 31.464C204.904 31.344 204.976 31.188 204.976 30.996V25.848C204.976 25.68 204.904 25.536 204.76 25.416C204.64 25.296 204.484 25.236 204.292 25.236H188.236C187.348 25.236 186.532 25.02 185.788 24.588C185.068 24.132 184.492 23.544 184.06 22.824C183.628 22.08 183.412 21.264 183.412 20.376V14.94C183.412 14.052 183.628 13.236 184.06 12.492C184.492 11.748 185.068 11.16 185.788 10.728C186.532 10.296 187.348 10.08 188.236 10.08H204.472C205.36 10.08 206.164 10.296 206.884 10.728C207.628 11.16 208.216 11.748 208.648 12.492C209.104 13.236 209.332 14.052 209.332 14.94V16.668H204.976V15.084C204.976 14.892 204.904 14.736 204.76 14.616C204.64 14.496 204.484 14.436 204.292 14.436H188.38C188.188 14.436 188.032 14.496 187.912 14.616C187.792 14.736 187.732 14.892 187.732 15.084V20.232C187.732 20.4 187.792 20.544 187.912 20.664C188.032 20.784 188.188 20.844 188.38 20.844H204.472C205.36 20.844 206.164 21.072 206.884 21.528C207.628 21.96 208.216 22.548 208.648 23.292C209.104 24.012 209.332 24.816 209.332 25.704V31.14C209.332 32.028 209.104 32.844 208.648 33.588C208.216 34.332 207.628 34.92 206.884 35.352C206.164 35.784 205.36 36 204.472 36H188.236ZM228.743 36V10.08H233.099V20.844H239.723L248.759 10.08H253.619V11.124L243.611 23.04L253.619 34.956V36H248.759L239.723 25.236H233.099V36H228.743ZM272.586 36V10.08H276.87V36H272.586ZM296.09 36V10.044H300.41V31.644H322.01V36H296.09ZM339.624 36V10.044H343.944V31.644H365.544V36H339.624ZM387.839 36C386.951 36 386.135 35.784 385.391 35.352C384.671 34.92 384.095 34.332 383.663 33.588C383.231 32.844 383.015 32.028 383.015 31.14V29.412H387.335V30.996C387.335 31.188 387.395 31.344 387.515 31.464C387.635 31.584 387.791 31.644 387.983 31.644H403.895C404.087 31.644 404.243 31.584 404.363 31.464C404.507 31.344 404.579 31.188 404.579 30.996V25.848C404.579 25.68 404.507 25.536 404.363 25.416C404.243 25.296 404.087 25.236 403.895 25.236H387.839C386.951 25.236 386.135 25.02 385.391 24.588C384.671 24.132 384.095 23.544 383.663 22.824C383.231 22.08 383.015 21.264 383.015 20.376V14.94C383.015 14.052 383.231 13.236 383.663 12.492C384.095 11.748 384.671 11.16 385.391 10.728C386.135 10.296 386.951 10.08 387.839 10.08H404.075C404.963 10.08 405.767 10.296 406.487 10.728C407.231 11.16 407.819 11.748 408.251 12.492C408.707 13.236 408.935 14.052 408.935 14.94V16.668H404.579V15.084C404.579 14.892 404.507 14.736 404.363 14.616C404.243 14.496 404.087 14.436 403.895 14.436H387.983C387.791 14.436 387.635 14.496 387.515 14.616C387.395 14.736 387.335 14.892 387.335 15.084V20.232C387.335 20.4 387.395 20.544 387.515 20.664C387.635 20.784 387.791 20.844 387.983 20.844H404.075C404.963 20.844 405.767 21.072 406.487 21.528C407.231 21.96 407.819 22.548 408.251 23.292C408.707 24.012 408.935 24.816 408.935 25.704V31.14C408.935 32.028 408.707 32.844 408.251 33.588C407.819 34.332 407.231 34.92 406.487 35.352C405.767 35.784 404.963 36 404.075 36H387.839Z" fill="url(#paint0_linear_84_4)"/>
<path d="M580.157 40.0012H593.008V4.99881H580.157V40.0012Z" fill="#67E78B"/>
<path opacity="0.6" d="M557.277 40.0012H570.128V4.99881H557.277V40.0012Z" fill="#67E78B"/>
<path opacity="0.3" d="M534.397 40.0012H547.248V4.99881H534.397V40.0012Z" fill="#67E78B"/>
<path opacity="0.15" d="M511.504 40.0012H524.355V4.99881H511.504V40.0012Z" fill="#67E78B"/>
<defs>
<linearGradient id="paint0_linear_84_4" x1="296.504" y1="-9.41327" x2="296.504" y2="36.2755" gradientUnits="userSpaceOnUse">
<stop offset="0.0976863" stop-color="#8EFFB9"/>
<stop offset="1" stop-color="#5CC77A"/>
</linearGradient>
</defs>
</svg>
