<svg width="695" height="170" viewBox="0 0 695 170" fill="none" xmlns="http://www.w3.org/2000/svg">
<path d="M110.716 69C109.039 69 107.497 68.592 106.092 67.776C104.732 66.96 103.644 65.8493 102.828 64.444C102.012 63.0387 101.604 61.4973 101.604 59.82V56.556H109.764V59.548C109.764 59.9107 109.877 60.2053 110.104 60.432C110.331 60.6587 110.625 60.772 110.988 60.772H141.044C141.407 60.772 141.701 60.6587 141.928 60.432C142.2 60.2053 142.336 59.9107 142.336 59.548V49.824C142.336 49.5067 142.2 49.2347 141.928 49.008C141.701 48.7813 141.407 48.668 141.044 48.668H110.716C109.039 48.668 107.497 48.26 106.092 47.444C104.732 46.5827 103.644 45.472 102.828 44.112C102.012 42.7067 101.604 41.1653 101.604 39.488V29.22C101.604 27.5427 102.012 26.0013 102.828 24.596C103.644 23.1907 104.732 22.08 106.092 21.264C107.497 20.448 109.039 20.04 110.716 20.04H141.384C143.061 20.04 144.58 20.448 145.94 21.264C147.345 22.08 148.456 23.1907 149.272 24.596C150.133 26.0013 150.564 27.5427 150.564 29.22V32.484H142.336V29.492C142.336 29.1293 142.2 28.8347 141.928 28.608C141.701 28.3813 141.407 28.268 141.044 28.268H110.988C110.625 28.268 110.331 28.3813 110.104 28.608C109.877 28.8347 109.764 29.1293 109.764 29.492V39.216C109.764 39.5333 109.877 39.8053 110.104 40.032C110.331 40.2587 110.625 40.372 110.988 40.372H141.384C143.061 40.372 144.58 40.8027 145.94 41.664C147.345 42.48 148.456 43.5907 149.272 44.996C150.133 46.356 150.564 47.8747 150.564 49.552V59.82C150.564 61.4973 150.133 63.0387 149.272 64.444C148.456 65.8493 147.345 66.96 145.94 67.776C144.58 68.592 143.061 69 141.384 69H110.716ZM166.965 69C165.288 69 163.747 68.592 162.341 67.776C160.936 66.96 159.825 65.8493 159.009 64.444C158.193 63.0387 157.785 61.4973 157.785 59.82V29.22C157.785 27.5427 158.193 26.0013 159.009 24.596C159.825 23.1907 160.936 22.08 162.341 21.264C163.747 20.448 165.288 20.04 166.965 20.04H197.565C199.243 20.04 200.761 20.448 202.121 21.264C203.527 22.08 204.637 23.1907 205.453 24.596C206.315 26.0013 206.745 27.5427 206.745 29.22V59.82C206.745 61.4973 206.315 63.0387 205.453 64.444C204.637 65.8493 203.527 66.96 202.121 67.776C200.761 68.592 199.243 69 197.565 69H166.965ZM167.169 60.772H197.225C197.588 60.772 197.883 60.6587 198.109 60.432C198.381 60.2053 198.517 59.9107 198.517 59.548V29.492C198.517 29.1293 198.381 28.8347 198.109 28.608C197.883 28.3813 197.588 28.268 197.225 28.268H167.169C166.852 28.268 166.557 28.3813 166.285 28.608C166.059 28.8347 165.945 29.1293 165.945 29.492V59.548C165.945 59.9107 166.059 60.2053 166.285 60.432C166.557 60.6587 166.852 60.772 167.169 60.772ZM214.37 69V20.04H259.318V28.268H222.598V40.372H252.178V48.668H222.598V69H214.37ZM281.99 69V28.268H261.59V20.04H310.55V28.268H290.218V69H281.99ZM332.024 69L314.208 20.04H322.912L335.288 53.972L347.664 20.04H355.96L368.404 53.972L380.78 20.04H389.484L371.668 69H365.072L351.812 32.62L338.552 69H332.024ZM393.268 69V29.22C393.268 27.5427 393.676 26.0013 394.492 24.596C395.308 23.1907 396.419 22.08 397.824 21.264C399.23 20.448 400.771 20.04 402.448 20.04H433.048C434.726 20.04 436.244 20.448 437.604 21.264C439.01 22.08 440.12 23.1907 440.936 24.596C441.798 26.0013 442.228 27.5427 442.228 29.22V69H434V52.204H401.428V69H393.268ZM401.428 44.044H434V29.492C434 29.1293 433.864 28.8347 433.592 28.608C433.366 28.3813 433.071 28.268 432.708 28.268H402.652C402.335 28.268 402.04 28.3813 401.768 28.608C401.542 28.8347 401.428 29.1293 401.428 29.492V44.044ZM489.552 69L474.524 51.048H485.2L498.732 67.096V69H489.552ZM449.976 69V20.108H489.756C491.433 20.108 492.952 20.5387 494.312 21.4C495.717 22.216 496.828 23.3267 497.644 24.732C498.505 26.092 498.936 27.6107 498.936 29.288V42.752C498.936 44.384 498.505 45.9027 497.644 47.308C496.828 48.7133 495.717 49.824 494.312 50.64C492.952 51.456 491.433 51.864 489.756 51.864L458.136 51.932V69H449.976ZM459.36 43.636H489.416C489.779 43.636 490.073 43.5227 490.3 43.296C490.572 43.0693 490.708 42.7747 490.708 42.412V29.492C490.708 29.1747 490.572 28.9027 490.3 28.676C490.073 28.404 489.779 28.268 489.416 28.268H459.36C459.043 28.268 458.748 28.404 458.476 28.676C458.249 28.9027 458.136 29.1747 458.136 29.492V42.412C458.136 42.7747 458.249 43.0693 458.476 43.296C458.748 43.5227 459.043 43.636 459.36 43.636ZM506.225 69V20.04H551.173V28.268H514.453V40.372H544.033V48.668H514.453V60.772H551.173V69H506.225ZM101.944 154V105.04H141.724C143.401 105.04 144.92 105.448 146.28 106.264C147.685 107.08 148.796 108.191 149.612 109.596C150.473 111.001 150.904 112.543 150.904 114.22V144.82C150.904 146.497 150.473 148.039 149.612 149.444C148.796 150.849 147.685 151.96 146.28 152.776C144.92 153.592 143.401 154 141.724 154H101.944ZM111.328 145.772H141.384C141.747 145.772 142.041 145.659 142.268 145.432C142.54 145.205 142.676 144.911 142.676 144.548V114.492C142.676 114.129 142.54 113.835 142.268 113.608C142.041 113.381 141.747 113.268 141.384 113.268H111.328C110.965 113.268 110.648 113.381 110.376 113.608C110.149 113.835 110.036 114.129 110.036 114.492V144.548C110.036 144.911 110.149 145.205 110.376 145.432C110.648 145.659 110.965 145.772 111.328 145.772ZM158.655 154V105.04H203.603V113.268H166.883V125.372H196.463V133.668H166.883V145.772H203.603V154H158.655ZM237.509 154L209.153 105.04H218.673L241.317 144.412L264.029 105.04H273.481L245.125 154H237.509ZM278.917 154V105.04H323.865V113.268H287.145V125.372H316.725V133.668H287.145V145.772H323.865V154H278.917ZM330.911 154V104.972H339.071V145.772H379.871V154H330.911ZM392.879 154C391.202 154 389.661 153.592 388.255 152.776C386.85 151.96 385.739 150.849 384.923 149.444C384.107 148.039 383.699 146.497 383.699 144.82V114.22C383.699 112.543 384.107 111.001 384.923 109.596C385.739 108.191 386.85 107.08 388.255 106.264C389.661 105.448 391.202 105.04 392.879 105.04H423.479C425.157 105.04 426.675 105.448 428.035 106.264C429.441 107.08 430.551 108.191 431.367 109.596C432.229 111.001 432.659 112.543 432.659 114.22V144.82C432.659 146.497 432.229 148.039 431.367 149.444C430.551 150.849 429.441 151.96 428.035 152.776C426.675 153.592 425.157 154 423.479 154H392.879ZM393.083 145.772H423.139C423.502 145.772 423.797 145.659 424.023 145.432C424.295 145.205 424.431 144.911 424.431 144.548V114.492C424.431 114.129 424.295 113.835 424.023 113.608C423.797 113.381 423.502 113.268 423.139 113.268H393.083C392.766 113.268 392.471 113.381 392.199 113.608C391.973 113.835 391.859 114.129 391.859 114.492V144.548C391.859 144.911 391.973 145.205 392.199 145.432C392.471 145.659 392.766 145.772 393.083 145.772ZM440.148 154V105.108H479.928C481.605 105.108 483.124 105.539 484.484 106.4C485.889 107.216 487 108.327 487.816 109.732C488.677 111.092 489.108 112.611 489.108 114.288V127.752C489.108 129.384 488.677 130.903 487.816 132.308C487 133.713 485.889 134.824 484.484 135.64C483.124 136.456 481.605 136.864 479.928 136.864L448.308 136.932V154H440.148ZM449.532 128.636H479.588C479.951 128.636 480.245 128.523 480.472 128.296C480.744 128.069 480.88 127.775 480.88 127.412V114.492C480.88 114.175 480.744 113.903 480.472 113.676C480.245 113.404 479.951 113.268 479.588 113.268H449.532C449.215 113.268 448.92 113.404 448.648 113.676C448.421 113.903 448.308 114.175 448.308 114.492V127.412C448.308 127.775 448.421 128.069 448.648 128.296C448.92 128.523 449.215 128.636 449.532 128.636ZM494.073 154V105.04H539.021V113.268H502.301V125.372H531.881V133.668H502.301V145.772H539.021V154H494.073ZM585.575 154L570.547 136.048H581.223L594.755 152.096V154H585.575ZM545.999 154V105.108H585.779C587.457 105.108 588.975 105.539 590.335 106.4C591.741 107.216 592.851 108.327 593.667 109.732C594.529 111.092 594.959 112.611 594.959 114.288V127.752C594.959 129.384 594.529 130.903 593.667 132.308C592.851 133.713 591.741 134.824 590.335 135.64C588.975 136.456 587.457 136.864 585.779 136.864L554.159 136.932V154H545.999ZM555.383 128.636H585.439C585.802 128.636 586.097 128.523 586.323 128.296C586.595 128.069 586.731 127.775 586.731 127.412V114.492C586.731 114.175 586.595 113.903 586.323 113.676C586.097 113.404 585.802 113.268 585.439 113.268H555.383C555.066 113.268 554.771 113.404 554.499 113.676C554.273 113.903 554.159 114.175 554.159 114.492V127.412C554.159 127.775 554.273 128.069 554.499 128.296C554.771 128.523 555.066 128.636 555.383 128.636Z" fill="url(#paint0_linear_35_58)"/>
<path d="M681.653 149.002H694.504V114H681.653V149.002Z" fill="#67E78B"/>
<path opacity="0.6" d="M658.773 149.002H671.624V114H658.773V149.002Z" fill="#67E78B"/>
<path opacity="0.3" d="M635.893 149.002H648.744V114H635.893V149.002Z" fill="#67E78B"/>
<path opacity="0.15" d="M613 149.002H625.851V114H613V149.002Z" fill="#67E78B"/>
<path d="M12.8508 29L0 29L-3.06001e-06 64.0024L12.8508 64.0024L12.8508 29Z" fill="#67E78B"/>
<path opacity="0.6" d="M35.7309 29L22.8801 29L22.8801 64.0024L35.7309 64.0024L35.7309 29Z" fill="#67E78B"/>
<path opacity="0.3" d="M58.611 29L45.7602 29L45.7602 64.0024L58.611 64.0024L58.611 29Z" fill="#67E78B"/>
<path opacity="0.15" d="M81.5039 29L68.6531 29L68.6531 64.0024L81.5039 64.0024L81.5039 29Z" fill="#67E78B"/>
<defs>
<linearGradient id="paint0_linear_35_58" x1="348.5" y1="-35.5612" x2="348.5" y2="137.041" gradientUnits="userSpaceOnUse">
<stop offset="0.0976863" stop-color="#8EFFB9"/>
<stop offset="1" stop-color="#5CC77A"/>
</linearGradient>
</defs>
</svg>
