<svg width="84" height="84" viewBox="0 0 84 84" fill="none" xmlns="http://www.w3.org/2000/svg">
<path d="M69.0867 0H14.0757C6.30192 0 0 6.30192 0 14.0757V69.0867C0 76.8605 6.30192 83.1625 14.0757 83.1625H69.0867C76.8605 83.1625 83.1624 76.8605 83.1624 69.0867V14.0757C83.1624 6.30192 76.8605 0 69.0867 0Z" fill="#2489F5"/>
<path d="M59.3091 54.4228C55.0009 49.2449 50.6877 44.0671 46.3796 38.8842C46.3293 38.8239 46.279 38.7635 46.2288 38.7032L60.7519 21.184L56.871 20.822L44.047 36.0791L31.9771 21.5761L31.0873 21.6515C28.3777 21.8827 25.6681 22.1089 22.9585 22.3351L19.6909 22.6116L26.6585 31.0521C30.1774 35.32 33.7013 39.583 37.2203 43.8509C37.2705 43.9112 37.3158 43.9716 37.3661 44.0269L22.4257 61.7975L26.6484 62.3354L39.593 46.7163L42.7902 50.5972C45.344 53.6939 47.8977 56.7905 50.4515 59.8822L51.0296 60.5809L63.4816 59.4247L59.3141 54.4178L59.3091 54.4228ZM52.5176 57.0017C50.1549 54.1413 47.7972 51.2759 45.4345 48.4155L41.9708 44.2179C41.267 43.3683 40.5633 42.5187 39.8645 41.6641C36.3456 37.3962 32.8266 33.1282 29.3027 28.8653L26.5076 25.477C27.8348 25.3664 29.1569 25.2559 30.484 25.1402L41.6592 38.5725C42.3529 39.407 43.0517 40.2415 43.7454 41.076C48.0536 46.2538 52.3617 51.4317 56.6699 56.6096L52.5176 56.9966V57.0017Z" fill="white"/>
</svg>
